<svg width="390" height="851" viewBox="0 0 390 851" fill="none" xmlns="http://www.w3.org/2000/svg">
<g clip-path="url(#clip0_236_7182)">
<rect width="390" height="850.59" fill="white"/>
<rect width="388" height="63.8" transform="translate(1 1)" fill="#F6F6F6"/>
<path d="M35.6289 24.4238V27.8613H38.0312V29.9121H35.6289V33.3105H33.1289V24.4238H35.6289ZM35.6289 34.0137V38.8574H26.3125V40.0488H36.1367V42.002H23.8711V37.0605H33.1484V35.9277H23.832V34.0137H35.6289ZM26.4297 24.9512C29.1641 24.9707 31.1953 26.6113 31.1953 28.9746C31.1953 31.3184 29.1641 32.998 26.4297 32.998C23.6953 32.998 21.6445 31.3184 21.6445 28.9746C21.6445 26.6113 23.6953 24.9707 26.4297 24.9512ZM26.4297 26.9824C25.0625 26.9824 24.0664 27.7246 24.0859 28.9746C24.0664 30.2441 25.0625 31.0254 26.4297 31.0254C27.7969 31.0254 28.7734 30.2441 28.7734 28.9746C28.7734 27.7246 27.7969 26.9824 26.4297 26.9824ZM53.1953 24.4434V34.9707H50.6953V24.4434H53.1953ZM47.4727 25.459V30.791H41.6914V32.334C44.6602 32.3242 46.75 32.2363 49.1523 31.8457L49.4648 33.8379C46.7305 34.2676 44.3477 34.3652 40.8125 34.3652H39.25V28.8965H44.9922V27.4121H39.2305V25.459H47.4727ZM53.1953 35.752V42.002H41.2812V35.752H53.1953ZM43.7422 37.7246V40.0098H50.7539V37.7246H43.7422ZM69.1992 24.4238V28.7988H71.6016V30.8887H69.1992V35.1465H66.6992V24.4238H69.1992ZM69.1992 35.9277V42.002H57.5781V35.9277H69.1992ZM60.0391 37.8809V40.0098H66.7383V37.8809H60.0391ZM65.6445 26.0254V27.998H55.0977V26.0254H59.1406V24.3262H61.6211V26.0254H65.6445ZM60.3711 28.5449C62.9492 28.5449 64.7461 29.8535 64.7461 31.7285C64.7461 33.6621 62.9492 34.9512 60.3711 34.9512C57.7539 34.9512 55.957 33.6621 55.957 31.7285C55.957 29.8535 57.7539 28.5449 60.3711 28.5449ZM60.3711 30.4199C59.1797 30.4199 58.3789 30.8887 58.3984 31.7285C58.3789 32.627 59.1797 33.1152 60.3711 33.1152C61.5625 33.1152 62.3828 32.627 62.3828 31.7285C62.3828 30.8887 61.5625 30.4199 60.3711 30.4199Z" fill="#1C1C1C"/>
<rect x="13.5" y="65.5" width="363" height="37" rx="17.5" fill="white"/>
<rect x="13.5" y="65.5" width="363" height="37" rx="17.5" stroke="#F6F6F6"/>
<path d="M86.4473 78.5312V81.0508H88.0176V81.8242H86.4473V84.625H85.5332V78.5312H86.4473ZM79.6504 79.1289V80.7227H82.6855V79.1289H83.5996V83.9688H78.748V79.1289H79.6504ZM79.6504 83.2305H82.6855V81.4609H79.6504V83.2305ZM86.5293 85.2109V85.9492H80.8223V88.0586H86.7285V88.8086H79.9082V85.2109H86.5293ZM97.966 84.0273V84.7773H88.4738V84.0273H97.966ZM96.9113 87.9531V88.7266H89.7043V85.6914H90.6301V87.9531H96.9113ZM93.2199 78.9062C95.4582 78.8945 96.8996 79.668 96.8996 80.9688C96.8996 82.2695 95.4582 83.043 93.2199 83.043C90.9582 83.043 89.5285 82.2695 89.5285 80.9688C89.5285 79.668 90.9582 78.8945 93.2199 78.9062ZM93.2199 79.6445C91.5441 79.6445 90.466 80.1484 90.4777 80.9688C90.466 81.7891 91.5441 82.293 93.2199 82.293C94.884 82.293 95.9621 81.7891 95.9621 80.9688C95.9621 80.1484 94.884 79.6445 93.2199 79.6445ZM109.601 78.5312V80.793H111.171V81.5664H109.601V83.8398H108.687V78.5312H109.601ZM109.601 84.332V86.875H103.882V88.0703H109.988V88.8086H102.98V86.1719H108.687V85.0703H102.957V84.332H109.601ZM104.363 78.918C105.933 78.9297 107.07 79.8672 107.07 81.2266C107.07 82.5977 105.933 83.5469 104.363 83.5469C102.804 83.5469 101.644 82.5977 101.656 81.2266C101.644 79.8672 102.804 78.9297 104.363 78.918ZM104.363 79.6914C103.32 79.6797 102.546 80.3242 102.558 81.2266C102.546 82.1406 103.32 82.7969 104.363 82.7969C105.406 82.7969 106.168 82.1406 106.168 81.2266C106.168 80.3242 105.406 79.6797 104.363 79.6914ZM120.229 78.543V84.7188H119.315V78.543H120.229ZM116.913 79.1758V82H113.069V83.4414C114.932 83.4531 116.327 83.3945 118.014 83.1133L118.12 83.8867C116.374 84.1562 114.944 84.2148 113.022 84.2148H112.179V81.2734H115.999V79.9141H112.155V79.1758H116.913ZM120.229 85.2812V88.8086H113.456V85.2812H120.229ZM114.358 86.0312V88.0586H119.327V86.0312H114.358Z" fill="#5F5F5D"/>
<rect x="201" y="70" width="171" height="28" rx="14" fill="#1C1C1C"/>
<path d="M269.658 78.4141V80.4766H271.1V81.707H269.658V83.7461H268.158V78.4141H269.658ZM269.658 84.168V87.0742H264.068V87.7891H269.963V88.9609H262.604V85.9961H268.17V85.3164H262.58V84.168H269.658ZM264.139 78.7305C265.779 78.7422 266.998 79.7266 266.998 81.1445C266.998 82.5508 265.779 83.5586 264.139 83.5586C262.498 83.5586 261.268 82.5508 261.268 81.1445C261.268 79.7266 262.498 78.7422 264.139 78.7305ZM264.139 79.9492C263.318 79.9492 262.721 80.3945 262.732 81.1445C262.721 81.9062 263.318 82.375 264.139 82.375C264.959 82.375 265.545 81.9062 265.545 81.1445C265.545 80.3945 264.959 79.9492 264.139 79.9492ZM280.298 78.4258V84.7422H278.798V78.4258H280.298ZM276.864 79.0352V82.2344H273.396V83.1602C275.177 83.1543 276.431 83.1016 277.872 82.8672L278.06 84.0625C276.419 84.3203 274.989 84.3789 272.868 84.3789H271.931V81.0977H275.376V80.207H271.919V79.0352H276.864ZM280.298 85.2109V88.9609H273.15V85.2109H280.298ZM274.626 86.3945V87.7656H278.833V86.3945H274.626ZM293.093 78.4141V83.8398H291.605V81.1914H289.601V80.0078H291.605V78.4141H293.093ZM293.093 84.2852V87.1328H287.492V87.7891H293.398V88.9609H286.015V86.043H291.617V85.4336H286.004V84.2852H293.093ZM288.101 79.5391C288.089 80.8164 288.839 82.0469 290.539 82.5508L289.754 83.6992C288.611 83.3301 287.814 82.6152 287.351 81.6953C286.888 82.7207 286.045 83.5293 284.796 83.9219L284.023 82.7383C285.793 82.2227 286.578 80.9219 286.589 79.5391V78.7656H288.101V79.5391ZM303.264 78.4141V84.7422H301.776V82.2227H300.112V81.0156H301.776V78.4141H303.264ZM299.62 84.9766C301.893 84.9883 303.288 85.7383 303.3 87.0391C303.288 88.3281 301.893 89.0898 299.62 89.0898C297.346 89.0898 295.952 88.3281 295.952 87.0391C295.952 85.7383 297.346 84.9883 299.62 84.9766ZM299.62 86.125C298.202 86.125 297.44 86.418 297.44 87.0391C297.44 87.6484 298.202 87.9531 299.62 87.9531C301.038 87.9531 301.811 87.6484 301.811 87.0391C301.811 86.418 301.038 86.125 299.62 86.125ZM300.429 79.0586V80.2539H298.307C298.343 81.4961 299.093 82.75 300.757 83.3008L300.018 84.4727C298.841 84.0918 298.032 83.3184 297.569 82.3516C297.095 83.4414 296.245 84.3203 294.979 84.7539L294.206 83.5703C295.958 82.9844 296.743 81.5898 296.784 80.2539H294.639V79.0586H300.429Z" fill="white"/>
<rect x="21.5" y="127.5" width="347" height="73" rx="15.5" fill="white"/>
<rect x="21.5" y="127.5" width="347" height="73" rx="15.5" stroke="#F6F6F6"/>
<rect x="47.3555" y="145" width="40" height="38" rx="19" fill="#FDECEF"/>
<path d="M62.3555 160.667C62.3555 159.341 62.8823 158.069 63.8199 157.131C64.7576 156.194 66.0294 155.667 67.3555 155.667C68.6816 155.667 69.9533 156.194 70.891 157.131C71.8287 158.069 72.3555 159.341 72.3555 160.667C72.3555 166.5 74.8555 168.167 74.8555 168.167H59.8555C59.8555 168.167 62.3555 166.5 62.3555 160.667Z" stroke="#C61747" stroke-width="1.5" stroke-linecap="round" stroke-linejoin="round"/>
<path d="M65.9395 171.5C66.0789 171.754 66.284 171.965 66.5332 172.113C66.7824 172.26 67.0666 172.338 67.3561 172.338C67.6456 172.338 67.9298 172.26 68.179 172.113C68.4282 171.965 68.6333 171.754 68.7728 171.5" stroke="#C61747" stroke-width="1.5" stroke-linecap="round" stroke-linejoin="round"/>
<path d="M109.596 148.816V151.223H111.277V152.658H109.596V155.037H107.846V148.816H109.596ZM109.596 155.529V158.92H103.074V159.754H109.951V161.121H101.365V157.662H107.859V156.869H101.338V155.529H109.596ZM103.156 149.186C105.07 149.199 106.492 150.348 106.492 152.002C106.492 153.643 105.07 154.818 103.156 154.818C101.242 154.818 99.8066 153.643 99.8066 152.002C99.8066 150.348 101.242 149.199 103.156 149.186ZM103.156 150.607C102.199 150.607 101.502 151.127 101.516 152.002C101.502 152.891 102.199 153.438 103.156 153.438C104.113 153.438 104.797 152.891 104.797 152.002C104.797 151.127 104.113 150.607 103.156 150.607ZM122.042 148.83V156.199H120.292V148.83H122.042ZM118.036 149.541V153.273H113.989V154.354C116.068 154.347 117.53 154.285 119.212 154.012L119.431 155.406C117.517 155.707 115.849 155.775 113.374 155.775H112.28V151.947H116.3V150.908H112.267V149.541H118.036ZM122.042 156.746V161.121H113.702V156.746H122.042ZM115.425 158.127V159.727H120.333V158.127H115.425ZM129.198 148.994C132.055 148.994 133.709 149.746 133.723 151.113C133.709 152.494 132.055 153.246 129.198 153.246C126.327 153.246 124.659 152.494 124.659 151.113C124.659 149.746 126.327 148.994 129.198 148.994ZM129.198 150.266C127.366 150.266 126.477 150.566 126.491 151.113C126.477 151.729 127.366 151.961 129.198 151.961C131.043 151.961 131.918 151.729 131.918 151.113C131.918 150.566 131.043 150.266 129.198 150.266ZM134.871 153.834V155.215H123.524V153.834H134.871ZM133.491 155.939V159.111H126.559V159.863H133.819V161.176H124.85V157.895H131.768V157.211H124.836V155.939H133.491ZM148.321 148.816V151.646H150.003V153.082H148.321V156.076H146.571V148.816H148.321ZM140.555 149.541V151.127H143.098V149.541H144.848V155.461H138.819V149.541H140.555ZM140.555 154.094H143.098V152.48H140.555V154.094ZM148.389 156.637V158.018H141.923V159.727H148.622V161.094H140.186V156.637H148.389ZM160.604 149.896V151.072C160.604 152.631 160.604 154.381 160.098 157.02L158.348 156.842C158.819 154.49 158.84 152.74 158.854 151.277H151.525V149.896H160.604ZM161.697 158.318V159.74H150.35V158.318H154.41V154.039H156.146V158.318H161.697ZM169.801 156.801C169.801 157.806 170.218 158.838 171.237 159.521C172.262 158.797 172.713 157.724 172.713 156.801V156.377H174.436V156.801C174.422 158.1 175.12 159.303 176.774 159.809L175.926 161.08C174.737 160.677 173.957 159.918 173.534 158.961C173.117 159.918 172.392 160.752 171.278 161.189C170.102 160.766 169.371 159.959 168.967 159.002C168.53 159.932 167.764 160.684 166.629 161.08L165.768 159.809C167.409 159.248 168.092 158.018 168.106 156.801V156.377H169.801V156.801ZM175.694 148.83V155.857H173.944V148.83H175.694ZM168.871 149.459C170.813 149.459 172.276 150.689 172.276 152.453C172.276 154.189 170.813 155.42 168.871 155.42C166.93 155.42 165.467 154.189 165.467 152.453C165.467 150.689 166.93 149.459 168.871 149.459ZM168.871 150.922C167.873 150.922 167.162 151.496 167.176 152.453C167.162 153.396 167.873 153.971 168.871 153.971C169.842 153.971 170.553 153.396 170.553 152.453C170.553 151.496 169.842 150.922 168.871 150.922ZM180.607 149.691C182.289 149.691 183.54 151.079 183.793 153.314H185.953V148.816H187.675V161.285H185.953V154.709H183.806C183.622 157.102 182.343 158.564 180.607 158.564C178.72 158.564 177.367 156.855 177.38 154.121C177.367 151.414 178.72 149.691 180.607 149.691ZM180.607 151.264C179.677 151.264 179.035 152.275 179.048 154.121C179.035 155.98 179.677 156.979 180.607 156.979C181.55 156.979 182.166 155.98 182.166 154.121C182.166 152.275 181.55 151.264 180.607 151.264ZM200.464 158.373V159.809H189.075V158.373H191.618V155.324C190.654 154.75 190.073 153.868 190.073 152.768C190.073 150.758 192.042 149.418 194.749 149.418C197.442 149.418 199.425 150.758 199.438 152.768C199.431 153.841 198.864 154.716 197.934 155.297V158.373H200.464ZM194.749 150.799C192.971 150.799 191.796 151.51 191.796 152.768C191.796 153.984 192.971 154.736 194.749 154.736C196.512 154.736 197.702 153.984 197.716 152.768C197.702 151.51 196.512 150.799 194.749 150.799ZM193.341 158.373H196.171V155.953C195.726 156.042 195.248 156.09 194.749 156.09C194.25 156.09 193.778 156.049 193.341 155.953V158.373Z" fill="#1C1C1C"/>
<path d="M108.367 167.691V178.133H107.441V167.691H108.367ZM102.824 168.5C104.371 168.512 105.484 169.918 105.484 172.133C105.484 174.348 104.371 175.754 102.824 175.754C101.266 175.754 100.164 174.348 100.164 172.133C100.164 169.918 101.266 168.512 102.824 168.5ZM102.824 169.32C101.781 169.332 101.055 170.434 101.055 172.133C101.055 173.832 101.781 174.934 102.824 174.934C103.867 174.934 104.594 173.832 104.594 172.133C104.594 170.434 103.867 169.332 102.824 169.32ZM121.373 167.691V178.109H120.448V167.691H121.373ZM118.291 168.828C118.28 171.828 116.885 174.477 113.393 176.152L112.889 175.402C115.707 174.066 117.143 172.068 117.354 169.578H113.37V168.828H118.291ZM131.545 167.691V178.109H130.619V167.691H131.545ZM128.462 168.828C128.451 171.828 127.056 174.477 123.564 176.152L123.06 175.402C125.879 174.066 127.314 172.068 127.525 169.578H123.541V168.828H128.462ZM142.641 176.047V176.82H133.102V176.047H137.391V174.078H134.298V170.867H140.532V169.227H134.274V168.465H141.434V171.617H135.212V173.316H141.68V174.078H138.294V176.047H142.641ZM154.675 167.691V173H153.773V167.691H154.675ZM154.675 173.516V176.07H148.839V177.289H155.05V178.027H147.925V175.367H153.773V174.254H147.913V173.516H154.675ZM151.675 168.312V169.062H147.655V171.734C149.864 171.734 151.177 171.646 152.671 171.359L152.788 172.086C151.218 172.391 149.882 172.484 147.585 172.473H146.73V168.312H151.675ZM168.607 175.988V176.75H159.068V175.988H163.334V173.434H164.236V175.988H168.607ZM164.259 169.203C164.259 170.949 166.322 172.473 168.138 172.789L167.728 173.551C166.14 173.229 164.464 172.15 163.791 170.645C163.105 172.145 161.441 173.229 159.853 173.551L159.443 172.789C161.259 172.473 163.298 170.949 163.298 169.203V168.406H164.259V169.203ZM172.93 169.203C172.919 170.727 174.02 172.074 175.567 172.613L175.098 173.34C173.891 172.9 172.936 171.998 172.473 170.844C172.011 172.08 171.044 173.053 169.825 173.527L169.345 172.801C170.903 172.227 171.993 170.773 171.993 169.203V168.207H172.93V169.203ZM177.841 174.488V178.109H176.927V175.25H170.833V174.488H177.841ZM177.841 167.691V173.973H176.927V167.691H177.841ZM188 167.691V178.133H187.074V167.691H188ZM182.457 168.5C184.004 168.512 185.117 169.918 185.117 172.133C185.117 174.348 184.004 175.754 182.457 175.754C180.898 175.754 179.797 174.348 179.797 172.133C179.797 169.918 180.898 168.512 182.457 168.5ZM182.457 169.32C181.414 169.332 180.688 170.434 180.688 172.133C180.688 173.832 181.414 174.934 182.457 174.934C183.5 174.934 184.227 173.832 184.227 172.133C184.227 170.434 183.5 169.332 182.457 169.32ZM195.534 168.371C197.139 168.383 198.299 169.367 198.311 170.82C198.299 172.127 197.362 173.059 196.002 173.223V175.004C196.975 174.957 197.954 174.887 198.862 174.77L198.92 175.461C196.717 175.836 194.245 175.859 192.416 175.848L192.264 175.074C193.102 175.068 194.075 175.062 195.077 175.027V173.223C193.694 173.064 192.745 172.133 192.756 170.82C192.745 169.367 193.905 168.383 195.534 168.371ZM195.534 169.168C194.444 169.168 193.647 169.848 193.659 170.82C193.647 171.793 194.444 172.473 195.534 172.473C196.612 172.473 197.397 171.793 197.409 170.82C197.397 169.848 196.612 169.168 195.534 169.168ZM200.444 167.691V171.992H202.143V172.789H200.444V178.109H199.53V167.691H200.444ZM212.103 176V176.773H202.564V176H204.931V173.188C204.041 172.725 203.502 171.975 203.502 171.031C203.502 169.414 205.084 168.359 207.31 168.348C209.537 168.359 211.119 169.414 211.119 171.031C211.119 171.957 210.597 172.701 209.736 173.164V176H212.103ZM207.31 169.109C205.599 169.098 204.392 169.871 204.392 171.031C204.392 172.191 205.599 172.977 207.31 172.977C209.009 172.977 210.228 172.191 210.228 171.031C210.228 169.871 209.009 169.098 207.31 169.109ZM205.834 176H208.81V173.516C208.359 173.639 207.855 173.703 207.31 173.703C206.777 173.703 206.279 173.645 205.834 173.527V176Z" fill="#92969E"/>
<rect x="295.645" y="154" width="47" height="20" rx="10" fill="#E6F4EC"/>
<rect x="304.645" y="161" width="6" height="6" rx="3" fill="#1F9D55"/>
<path d="M320.714 160.856V161.555H315.031V160.856H317.448V159.438H318.286V160.856H320.714ZM317.878 162.35C319.167 162.35 320.112 163.263 320.123 164.541C320.112 165.809 319.167 166.732 317.878 166.732C316.578 166.732 315.622 165.809 315.622 164.541C315.622 163.263 316.578 162.35 317.878 162.35ZM317.878 163.069C317.04 163.08 316.406 163.692 316.417 164.541C316.406 165.4 317.04 166.013 317.878 166.002C318.716 166.013 319.35 165.4 319.35 164.541C319.35 163.692 318.716 163.08 317.878 163.069ZM322.948 159.32V168.87H322.11V164.047H320.51V163.338H322.11V159.32H322.948ZM333.039 164.047V164.745H324.338V164.047H326.497V162.704C325.735 162.409 325.305 161.92 325.305 161.275C325.305 160.147 326.594 159.503 328.689 159.503C330.762 159.503 332.062 160.147 332.062 161.275C332.062 161.915 331.637 162.403 330.88 162.693V164.047H333.039ZM328.689 165.476C330.74 165.476 331.965 166.066 331.976 167.162C331.965 168.247 330.74 168.849 328.689 168.849C326.615 168.849 325.391 168.247 325.391 167.162C325.391 166.066 326.615 165.476 328.689 165.476ZM328.689 166.12C327.153 166.131 326.239 166.507 326.25 167.162C326.239 167.807 327.153 168.193 328.689 168.193C330.203 168.193 331.127 167.807 331.127 167.162C331.127 166.507 330.203 166.131 328.689 166.12ZM328.689 160.169C327.131 160.169 326.164 160.588 326.175 161.275C326.164 161.974 327.131 162.382 328.689 162.382C330.236 162.382 331.202 161.974 331.202 161.275C331.202 160.588 330.236 160.169 328.689 160.169ZM327.335 164.047H330.042V162.93C329.639 163 329.188 163.037 328.689 163.037C328.189 163.037 327.738 163 327.335 162.93V164.047Z" fill="#1F9D55"/>
<rect x="21.5" y="213.5" width="347" height="170.92" rx="15.5" fill="white"/>
<rect x="21.5" y="213.5" width="347" height="170.92" rx="15.5" stroke="#F6F6F6"/>
<path d="M58.4629 227.833V234.026H57.4102V227.833H58.4629ZM58.4629 234.628V237.608H51.6543V239.03H58.9004V239.892H50.5879V236.788H57.4102V235.489H50.5742V234.628H58.4629ZM54.9629 228.558V229.433H50.2734V232.55C52.8506 232.55 54.3818 232.447 56.125 232.112L56.2617 232.96C54.4297 233.315 52.8711 233.425 50.1914 233.411H49.1934V228.558H54.9629ZM73.1566 227.833V230.472H74.9887V231.374H73.1566V234.026H72.0902V227.833H73.1566ZM73.1566 234.601V237.567H66.4848V238.962H73.6078V239.823H65.432V236.747H72.0902V235.462H65.4047V234.601H73.1566ZM67.0453 228.284C68.8773 228.298 70.2035 229.392 70.2035 230.978C70.2035 232.577 68.8773 233.685 67.0453 233.685C65.227 233.685 63.8734 232.577 63.8871 230.978C63.8734 229.392 65.227 228.298 67.0453 228.284ZM67.0453 229.187C65.8285 229.173 64.9262 229.925 64.9398 230.978C64.9262 232.044 65.8285 232.81 67.0453 232.81C68.2621 232.81 69.1508 232.044 69.1508 230.978C69.1508 229.925 68.2621 229.173 67.0453 229.187ZM85.5895 227.847V235.052H84.523V227.847H85.5895ZM81.7203 228.585V231.88H77.2359V233.562C79.4098 233.575 81.0367 233.507 83.0055 233.179L83.1285 234.081C81.0914 234.396 79.4234 234.464 77.1812 234.464H76.1969V231.032H80.6539V229.446H76.1695V228.585H81.7203ZM85.5895 235.708V239.823H77.6871V235.708H85.5895ZM78.7398 236.583V238.948H84.5367V236.583H78.7398Z" fill="#1C1C1C"/>
<path d="M57.2656 246.571V256.989H56.3633V251.599H54.8633V256.45H53.9961V246.806H54.8633V250.813H56.3633V246.571H57.2656ZM49.8125 247.849V253.474C50.8496 253.462 51.9512 253.392 53.2227 253.134L53.3398 253.954C51.8867 254.212 50.6914 254.294 49.543 254.294H48.8984V247.849H49.8125ZM64.307 246.958C65.8656 246.97 67.0023 247.907 67.0023 249.267C67.0023 250.626 65.8656 251.563 64.307 251.563C62.725 251.563 61.6 250.626 61.6 249.267C61.6 247.907 62.725 246.97 64.307 246.958ZM64.307 247.731C63.2641 247.731 62.4906 248.364 62.5023 249.267C62.4906 250.181 63.2641 250.813 64.307 250.813C65.3383 250.813 66.1117 250.181 66.1117 249.267C66.1117 248.364 65.3383 247.731 64.307 247.731ZM69.9555 246.571V251.927H69.0414V246.571H69.9555ZM69.9555 252.431V254.938H64.1078V256.11H70.3305V256.849H63.2055V254.247H69.0414V253.169H63.182V252.431H69.9555ZM80.1617 246.571V252.782H79.2359V250.052H77.1383V249.29H79.2359V246.571H80.1617ZM76.7047 253.11C78.8727 253.11 80.1969 253.813 80.1969 255.044C80.1969 256.274 78.8727 256.978 76.7047 256.989C74.5367 256.978 73.2125 256.274 73.2125 255.044C73.2125 253.813 74.5367 253.11 76.7047 253.11ZM76.7047 253.825C75.1109 253.825 74.1148 254.282 74.1266 255.044C74.1148 255.794 75.1109 256.251 76.7047 256.251C78.2984 256.251 79.2828 255.794 79.2828 255.044C79.2828 254.282 78.2984 253.825 76.7047 253.825ZM75.1461 248.481C75.1461 249.841 76.1891 251.13 77.7125 251.657L77.232 252.396C76.0602 251.974 75.152 251.101 74.7125 250.017C74.2555 251.241 73.2887 252.22 72.0523 252.688L71.5719 251.95C73.1187 251.388 74.2203 249.981 74.2203 248.493V248.106H71.8648V247.333H77.4781V248.106H75.1461V248.481ZM90.6258 246.571V256.989H89.7352V246.571H90.6258ZM88.5281 246.794V256.462H87.6492V251.399H86.3133C86.2137 253.427 85.3523 254.692 84.0633 254.692C82.7039 254.692 81.825 253.286 81.825 251.071C81.825 248.856 82.7039 247.45 84.0633 247.45C85.3289 247.45 86.1844 248.675 86.3016 250.638H87.6492V246.794H88.5281ZM84.0633 248.317C83.2195 248.317 82.6805 249.372 82.6922 251.071C82.6805 252.759 83.2195 253.825 84.0633 253.813C84.907 253.825 85.4461 252.759 85.4461 251.071C85.4461 249.372 84.907 248.317 84.0633 248.317ZM99.9406 247.286V251.739H95.1242V247.286H99.9406ZM96.0266 248.036V250.989H99.05V248.036H96.0266ZM102.823 246.571V249.079H104.394V249.853H102.823V252.524H101.909V246.571H102.823ZM103.011 253.134V253.884H100.058C100.157 254.997 101.71 255.97 103.409 256.239L103.07 256.954C101.546 256.702 100.163 255.946 99.5656 254.903C98.9738 255.952 97.6027 256.696 96.0852 256.942L95.7336 256.239C97.4562 255.97 98.9797 255.015 99.0969 253.884H96.1437V253.134H103.011ZM113.276 249.735V250.474H106.139V246.958H107.053V249.735H113.276ZM114.377 251.892V252.642H104.838V251.892H114.377ZM113.334 255.97V256.731H106.08V253.708H106.995V255.97H113.334ZM126.423 246.571V251.88H125.52V246.571H126.423ZM126.423 252.396V254.95H120.587V256.169H126.798V256.907H119.673V254.247H125.52V253.134H119.661V252.396H126.423ZM123.423 247.192V247.942H119.403V250.614C121.612 250.614 122.925 250.526 124.419 250.239L124.536 250.966C122.966 251.271 121.63 251.364 119.333 251.353H118.477V247.192H123.423ZM136.594 246.571V257.013H135.668V246.571H136.594ZM131.051 247.38C132.598 247.392 133.711 248.798 133.711 251.013C133.711 253.228 132.598 254.634 131.051 254.634C129.492 254.634 128.391 253.228 128.391 251.013C128.391 248.798 129.492 247.392 131.051 247.38ZM131.051 248.2C130.008 248.212 129.281 249.313 129.281 251.013C129.281 252.712 130.008 253.813 131.051 253.813C132.094 253.813 132.82 252.712 132.82 251.013C132.82 249.313 132.094 248.212 131.051 248.2ZM143.858 246.946C144.772 246.946 145.545 247.286 146.026 247.849H148.698V246.571H149.612V251.927H148.698V250.731H146.061C145.575 251.317 144.789 251.669 143.858 251.669C142.287 251.669 141.151 250.708 141.151 249.302C141.151 247.907 142.287 246.946 143.858 246.946ZM143.858 247.708C142.791 247.696 142.03 248.364 142.03 249.302C142.03 250.251 142.791 250.919 143.858 250.931C144.889 250.919 145.662 250.251 145.662 249.302C145.662 248.364 144.889 247.696 143.858 247.708ZM149.612 252.454V254.95H143.799V256.11H150.01V256.849H142.885V254.247H148.698V253.192H142.862V252.454H149.612ZM146.448 248.587C146.512 248.81 146.553 249.05 146.553 249.302C146.553 249.548 146.512 249.776 146.448 249.993H148.698V248.587H146.448ZM159.759 246.571V257.013H158.845V246.571H159.759ZM156.595 247.544V251.247H152.705V253.708C154.433 253.708 155.974 253.632 157.838 253.333L157.931 254.106C156.009 254.411 154.427 254.481 152.634 254.481H151.767V250.497H155.67V248.306H151.744V247.544H156.595ZM166.602 247.485V248.411H169.04V246.583H169.966V254.188H169.04V251.411H166.602V252.349H161.821V247.485H166.602ZM162.735 248.247V251.61H165.7V248.247H162.735ZM170.2 255.993V256.767H163.227V253.509H164.153V255.993H170.2ZM166.602 250.649H169.04V249.185H166.602V250.649Z" fill="#92969E"/>
<rect x="294.049" y="228.46" width="48" height="28" rx="14" fill="#C61747"/>
<rect x="317.049" y="231.46" width="22" height="22" rx="11" fill="white"/>
<rect x="23" y="271" width="344" height="1" fill="#F6F6F6"/>
<path d="M49.5469 287.601C49.5332 289.815 51.0508 292.058 52.8418 292.864L52.1855 293.712C50.8047 293.035 49.6084 291.606 49.0273 289.87C48.46 291.709 47.2637 293.24 45.8418 293.958L45.1582 293.056C46.9629 292.222 48.4668 289.911 48.4805 287.601V285.386H49.5469V287.601ZM55.248 284.333V296.515H54.168V284.333H55.248ZM61.2414 286.589C61.2414 288.202 62.4309 289.679 64.2355 290.308L63.6887 291.142C62.301 290.649 61.2414 289.651 60.7219 288.394C60.2023 289.774 59.0881 290.848 57.6594 291.374L57.0852 290.54C58.9035 289.897 60.175 288.325 60.1887 286.589V286.069H57.4133V285.194H63.9758V286.069H61.2414V286.589ZM66.6281 284.333V287.546H68.4602V288.462H66.6281V291.661H65.5617V284.333H66.6281ZM66.6281 292.304V296.487H65.5617V293.179H58.6711V292.304H66.6281ZM81.8414 284.333V286.972H83.6734V287.874H81.8414V290.526H80.775V284.333H81.8414ZM81.8414 291.101V294.067H75.1695V295.462H82.2926V296.323H74.1168V293.247H80.775V291.962H74.0895V291.101H81.8414ZM75.7301 284.784C77.5621 284.798 78.8883 285.892 78.8883 287.478C78.8883 289.077 77.5621 290.185 75.7301 290.185C73.9117 290.185 72.5582 289.077 72.5719 287.478C72.5582 285.892 73.9117 284.798 75.7301 284.784ZM75.7301 285.687C74.5133 285.673 73.6109 286.425 73.6246 287.478C73.6109 288.544 74.5133 289.31 75.7301 289.31C76.9469 289.31 77.8355 288.544 77.8355 287.478C77.8355 286.425 76.9469 285.673 75.7301 285.687ZM94.2742 284.347V291.552H93.2078V284.347H94.2742ZM90.4051 285.085V288.38H85.9207V290.062C88.0945 290.075 89.7215 290.007 91.6902 289.679L91.8133 290.581C89.7762 290.896 88.1082 290.964 85.866 290.964H84.8816V287.532H89.3387V285.946H84.8543V285.085H90.4051ZM94.2742 292.208V296.323H86.3719V292.208H94.2742ZM87.4246 293.083V295.448H93.2215V293.083H87.4246Z" fill="#1C1C1C"/>
<path d="M48.8594 305.872C48.8477 307.771 50.1484 309.692 51.6836 310.384L51.1211 311.11C49.9375 310.53 48.9121 309.306 48.4141 307.817C47.9277 309.394 46.9023 310.706 45.6836 311.321L45.0977 310.548C46.6445 309.833 47.9336 307.853 47.9453 305.872V303.974H48.8594V305.872ZM53.7461 303.071V313.513H52.8203V303.071H53.7461ZM58.8547 305.005C58.8547 306.388 59.8742 307.653 61.4211 308.192L60.9523 308.907C59.7629 308.485 58.8547 307.63 58.4094 306.552C57.9641 307.735 57.009 308.655 55.7844 309.106L55.2922 308.392C56.8508 307.841 57.9406 306.493 57.9523 305.005V304.56H55.5734V303.81H61.1984V304.56H58.8547V305.005ZM63.4719 303.071V305.825H65.0422V306.61H63.4719V309.353H62.5578V303.071H63.4719ZM63.4719 309.903V313.489H62.5578V310.653H56.6516V309.903H63.4719ZM76.9469 303.083V310.724H76.0211V306.728H73.8766V305.966H76.0211V303.083H76.9469ZM77.2398 312.493V313.267H70.2555V310.032H71.1812V312.493H77.2398ZM71.9312 305.228C71.9312 306.575 72.9742 307.888 74.4977 308.403L74.0172 309.142C72.8395 308.72 71.9312 307.841 71.4859 306.763C71.0348 307.964 70.0738 308.925 68.8375 309.388L68.357 308.638C69.8922 308.099 71.0055 306.728 71.0055 305.228V304.688H68.65V303.927H74.2633V304.688H71.9312V305.228ZM89.8828 303.071V308.38H88.9805V303.071H89.8828ZM89.8828 308.896V311.45H84.0469V312.669H90.2578V313.407H83.1328V310.747H88.9805V309.634H83.1211V308.896H89.8828ZM86.8828 303.692V304.442H82.8633V307.114C85.0723 307.114 86.3848 307.026 87.8789 306.739L87.9961 307.466C86.4258 307.771 85.0898 307.864 82.793 307.853H81.9375V303.692H86.8828ZM100.054 303.071V313.513H99.1281V303.071H100.054ZM94.5109 303.88C96.0578 303.892 97.1711 305.298 97.1711 307.513C97.1711 309.728 96.0578 311.134 94.5109 311.134C92.9523 311.134 91.8508 309.728 91.8508 307.513C91.8508 305.298 92.9523 303.892 94.5109 303.88ZM94.5109 304.7C93.468 304.712 92.7414 305.813 92.7414 307.513C92.7414 309.212 93.468 310.313 94.5109 310.313C95.5539 310.313 96.2805 309.212 96.2805 307.513C96.2805 305.813 95.5539 304.712 94.5109 304.7ZM107.318 303.446C108.232 303.446 109.005 303.786 109.486 304.349H112.158V303.071H113.072V308.427H112.158V307.231H109.521C109.035 307.817 108.25 308.169 107.318 308.169C105.748 308.169 104.611 307.208 104.611 305.802C104.611 304.407 105.748 303.446 107.318 303.446ZM107.318 304.208C106.252 304.196 105.49 304.864 105.49 305.802C105.49 306.751 106.252 307.419 107.318 307.431C108.349 307.419 109.123 306.751 109.123 305.802C109.123 304.864 108.349 304.196 107.318 304.208ZM113.072 308.954V311.45H107.259V312.61H113.47V313.349H106.345V310.747H112.158V309.692H106.322V308.954H113.072ZM109.908 305.087C109.972 305.31 110.013 305.55 110.013 305.802C110.013 306.048 109.972 306.276 109.908 306.493H112.158V305.087H109.908ZM123.22 303.071V313.513H122.305V303.071H123.22ZM120.055 304.044V307.747H116.165V310.208C117.893 310.208 119.434 310.132 121.298 309.833L121.391 310.606C119.47 310.911 117.887 310.981 116.095 310.981H115.227V306.997H119.13V304.806H115.204V304.044H120.055ZM130.062 303.985V304.911H132.5V303.083H133.426V310.688H132.5V307.911H130.062V308.849H125.281V303.985H130.062ZM126.195 304.747V308.11H129.16V304.747H126.195ZM133.66 312.493V313.267H126.688V310.009H127.613V312.493H133.66ZM130.062 307.149H132.5V305.685H130.062V307.149Z" fill="#92969E"/>
<rect x="297.264" y="284.96" width="48" height="28" rx="14" fill="#C61747"/>
<rect x="320.264" y="287.96" width="22" height="22" rx="11" fill="white"/>
<rect x="23" y="327.5" width="344" height="1" fill="#F6F6F6"/>
<path d="M48.207 344.101C48.207 346.302 49.6152 348.517 51.3789 349.323L50.7363 350.198C49.3555 349.487 48.2139 348.031 47.6738 346.302C47.1338 348.12 45.9922 349.679 44.6113 350.417L43.9141 349.556C45.6914 348.681 47.1133 346.343 47.1133 344.101V341.886H48.207V344.101ZM54.0039 340.833V353.015H52.9375V345.864H50.0527V344.989H52.9375V340.833H54.0039ZM65.8488 340.833V353.015H64.7688V340.833H65.8488ZM57.6047 341.872V345.085H61.2277V341.872H62.2805V350.075H56.5383V341.872H57.6047ZM57.6047 349.173H61.2277V345.946H57.6047V349.173ZM73.7836 342.624C73.7836 344.702 76.1625 346.562 78.2816 346.958L77.7895 347.86C75.9574 347.437 74.0229 346.131 73.2367 344.333C72.4506 346.124 70.5229 347.43 68.684 347.86L68.1918 346.958C70.2973 346.548 72.6625 344.716 72.6625 342.624V341.694H73.7836V342.624ZM78.8559 350.444V351.333H67.727V350.444H78.8559ZM88.4363 348.517C91.0477 348.517 92.702 349.337 92.702 350.745C92.702 352.14 91.0477 352.96 88.4363 352.96C85.8387 352.96 84.1844 352.14 84.1844 350.745C84.1844 349.337 85.8387 348.517 88.4363 348.517ZM88.4363 349.337C86.4949 349.351 85.2371 349.884 85.2508 350.745C85.2371 351.593 86.4949 352.112 88.4363 352.112C90.3777 352.112 91.6219 351.593 91.6355 350.745C91.6219 349.884 90.3777 349.351 88.4363 349.337ZM92.6063 341.462V342.487C92.6063 343.472 92.6063 344.456 92.2645 345.714L91.2117 345.591C91.5398 344.333 91.5398 343.444 91.5398 342.487V342.337H84.2664V341.462H92.6063ZM94.0145 346.507V347.382H82.9539V346.507H87.534V344.155H88.5867V346.507H94.0145ZM99.1875 344.565C99.1875 346.63 100.691 348.722 102.482 349.501L101.881 350.349C100.459 349.699 99.2285 348.298 98.668 346.616C98.0938 348.4 96.8701 349.952 95.4824 350.649L94.8398 349.802C96.5762 348.968 98.0938 346.671 98.1074 344.565V342.979H95.2363V342.091H102.086V342.979H99.1875V344.565ZM104.861 340.833V352.987H103.781V340.833H104.861Z" fill="#1C1C1C"/>
<path d="M46.9746 362.513C46.9746 364.224 47.8066 365.993 49.1895 366.743L48.6387 367.47C47.6309 366.89 46.9102 365.829 46.541 364.575C46.1484 365.94 45.375 367.106 44.3379 367.728L43.7402 367.048C45.1934 366.216 46.084 364.353 46.084 362.571V360.556H46.9746V362.513ZM52.7871 359.571V369.989H51.8965V364.528H50.4668V369.462H49.5762V359.794H50.4668V363.767H51.8965V359.571H52.7871ZM66.3441 364.728V365.466H56.8402V364.728H61.141V363.509H58.0473V360.063H65.1605V360.802H58.9496V362.759H65.2309V363.509H62.0316V364.728H66.3441ZM61.5863 366.228C63.8246 366.228 65.1605 366.907 65.1723 368.103C65.1605 369.31 63.8246 369.978 61.5863 369.989C59.3363 369.978 57.9887 369.31 57.9887 368.103C57.9887 366.907 59.3363 366.228 61.5863 366.228ZM61.5863 366.954C59.9105 366.954 58.9145 367.388 58.9262 368.103C58.9145 368.829 59.9105 369.251 61.5863 369.251C63.2387 369.251 64.2465 368.829 64.2465 368.103C64.2465 367.388 63.2387 366.954 61.5863 366.954ZM68.441 360.708V366.544C69.566 366.532 70.6324 366.468 71.8863 366.204L72.0152 367.001C70.6207 367.294 69.4605 367.353 68.1832 367.353H67.527V360.708H68.441ZM75.9293 359.571V369.989H75.0504V359.571H75.9293ZM73.7027 359.829V369.462H72.8238V363.849H70.4449V363.087H72.8238V359.829H73.7027ZM84.7402 360.251C86.9551 360.263 88.5488 361.341 88.5488 362.981C88.5488 364.534 87.166 365.565 85.1855 365.688V367.88H89.5332V368.653H79.9941V367.88H84.2832V365.688C82.3086 365.56 80.9316 364.528 80.9316 362.981C80.9316 361.341 82.5254 360.263 84.7402 360.251ZM84.7402 361.013C83.0527 361.013 81.8223 361.81 81.8223 362.981C81.8223 364.188 83.0527 364.962 84.7402 364.974C86.4277 364.962 87.6582 364.188 87.6582 362.981C87.6582 361.81 86.4277 361.013 84.7402 361.013ZM98.7551 360.11V360.86H97.1496V363.263H98.7199V364.001H91.091V363.263H92.6613V360.86H91.0559V360.11H98.7551ZM99.6574 365.138V365.899H90.1652V365.138H99.6574ZM98.6027 368.993V369.767H91.3957V366.849H92.3215V368.993H98.6027ZM93.5754 363.263H96.2355V360.86H93.5754V363.263ZM112.652 364.528V365.302H103.148V364.528H112.652ZM111.539 362.782V363.532H104.355V359.993H111.468V360.767H105.257V362.782H111.539ZM107.894 366.216C110.132 366.216 111.468 366.896 111.48 368.091C111.468 369.298 110.132 369.966 107.894 369.966C105.644 369.966 104.296 369.298 104.296 368.091C104.296 366.896 105.644 366.216 107.894 366.216ZM107.894 366.931C106.218 366.942 105.222 367.364 105.234 368.091C105.222 368.829 106.218 369.239 107.894 369.239C109.546 369.239 110.554 368.829 110.554 368.091C110.554 367.364 109.546 366.942 107.894 366.931Z" fill="#92969E"/>
<rect x="298.566" y="341.46" width="48" height="28" rx="14" fill="#F6F6F6"/>
<rect x="301.566" y="344.46" width="22" height="22" rx="11" fill="white"/>
<rect x="21.5" y="397.42" width="347" height="115" rx="15.5" fill="white"/>
<rect x="21.5" y="397.42" width="347" height="115" rx="15.5" stroke="#F6F6F6"/>
<path d="M48.5586 428.396C51.0605 428.396 52.5645 429.216 52.5645 430.638C52.5645 432.073 51.0605 432.894 48.5586 432.907C46.0566 432.894 44.5254 432.073 44.5254 430.638C44.5254 429.216 46.0566 428.396 48.5586 428.396ZM48.5586 429.243C46.7266 429.257 45.5918 429.763 45.6055 430.638C45.5918 431.513 46.7266 432.032 48.5586 432.032C50.4043 432.032 51.5254 431.513 51.5254 430.638C51.5254 429.763 50.4043 429.257 48.5586 429.243ZM52.4551 420.753V423.815H54.2871V424.731H52.4551V428.067H51.3887V420.753H52.4551ZM44.5254 421.519V423.378H48.0664V421.519H49.1328V427.124H43.4727V421.519H44.5254ZM44.5254 426.249H48.0664V424.226H44.5254V426.249ZM60.923 422.858V423.733H54.8254V422.858H57.3547V421.122H58.4211V422.858H60.923ZM57.8742 424.554C59.4055 424.554 60.4992 425.702 60.5129 427.315C60.4992 428.942 59.4055 430.104 57.8742 430.104C56.3566 430.104 55.2629 428.942 55.2629 427.315C55.2629 425.702 56.3566 424.554 57.8742 424.554ZM57.8742 425.456C56.9172 425.47 56.2199 426.249 56.2199 427.315C56.2199 428.396 56.9172 429.175 57.8742 429.161C58.8449 429.175 59.5559 428.396 59.5559 427.315C59.5559 426.249 58.8449 425.47 57.8742 425.456ZM65.2023 420.753V432.907H64.177V426.769H62.5637V432.306H61.552V421.054H62.5637V425.88H64.177V420.753H65.2023ZM79.732 421.409V422.312C79.732 423.255 79.732 424.362 79.4176 425.88H81.1949V426.769H70.066V425.88H78.3375C78.6656 424.355 78.6656 423.255 78.6656 422.312V422.298H71.4742V421.409H79.732ZM79.7867 428.45V432.743H71.4332V428.45H79.7867ZM72.4996 429.298V431.868H78.7203V429.298H72.4996ZM86.3133 424.485C86.3133 426.55 87.8172 428.642 89.6082 429.421L89.0066 430.269C87.5848 429.619 86.3543 428.218 85.7938 426.536C85.2195 428.32 83.9959 429.872 82.6082 430.569L81.9656 429.722C83.702 428.888 85.2195 426.591 85.2332 424.485V422.899H82.3621V422.011H89.2117V422.899H86.3133V424.485ZM91.9871 420.753V432.907H90.907V420.753H91.9871ZM101.499 424.021C101.486 426.235 103.003 428.478 104.794 429.284L104.138 430.132C102.757 429.455 101.561 428.026 100.98 426.29C100.412 428.129 99.216 429.66 97.7941 430.378L97.1105 429.476C98.9152 428.642 100.419 426.331 100.433 424.021V421.806H101.499V424.021ZM107.2 420.753V432.935H106.12V420.753H107.2ZM118.58 420.753V424.458H120.412V425.36H118.58V429.653H117.5V420.753H118.58ZM115.299 421.696C115.299 424.827 113.057 427.151 109.557 428.245L109.092 427.384C112.004 426.475 113.905 424.738 114.137 422.599H109.598V421.696H115.299ZM119.141 431.745V432.647H110.965V428.751H112.032V431.745H119.141Z" fill="#1C1C1C"/>
<path d="M241.443 430.8L241.431 429.962L244.566 426.661C245.658 425.506 246.179 424.884 246.179 424.033C246.179 423.094 245.379 422.472 244.351 422.472C243.259 422.472 242.561 423.17 242.561 424.198H241.481C241.469 422.573 242.726 421.481 244.389 421.481C246.052 421.481 247.245 422.599 247.245 424.033C247.245 425.062 246.763 425.861 245.138 427.537L243.03 429.708V429.784H247.41V430.8H241.443ZM248.873 430.8L248.861 429.962L251.996 426.661C253.088 425.506 253.609 424.884 253.609 424.033C253.609 423.094 252.809 422.472 251.78 422.472C250.689 422.472 249.99 423.17 249.99 424.198H248.911C248.899 422.573 250.155 421.481 251.819 421.481C253.482 421.481 254.675 422.599 254.675 424.033C254.675 425.062 254.193 425.861 252.568 427.537L250.46 429.708V429.784H254.84V430.8H248.873ZM257.09 429.581C256.646 429.581 256.265 429.213 256.278 428.756C256.265 428.312 256.646 427.943 257.09 427.943C257.535 427.943 257.903 428.312 257.903 428.756C257.903 429.213 257.535 429.581 257.09 429.581ZM257.09 424.478C256.646 424.478 256.265 424.109 256.278 423.652C256.265 423.208 256.646 422.84 257.09 422.84C257.535 422.84 257.903 423.208 257.903 423.652C257.903 424.109 257.535 424.478 257.09 424.478ZM262.413 430.927C260.369 430.927 259.201 429.213 259.201 426.204C259.201 423.221 260.394 421.481 262.413 421.481C264.431 421.481 265.625 423.221 265.625 426.204C265.625 429.213 264.444 430.927 262.413 430.927ZM262.413 429.911C263.733 429.911 264.507 428.578 264.507 426.204C264.507 423.83 263.733 422.472 262.413 422.472C261.092 422.472 260.305 423.83 260.305 426.204C260.305 428.578 261.08 429.911 262.413 429.911ZM269.957 430.927C267.913 430.927 266.745 429.213 266.745 426.204C266.745 423.221 267.938 421.481 269.957 421.481C271.975 421.481 273.169 423.221 273.169 426.204C273.169 429.213 271.988 430.927 269.957 430.927ZM269.957 429.911C271.277 429.911 272.052 428.578 272.052 426.204C272.052 423.83 271.277 422.472 269.957 422.472C268.637 422.472 267.849 423.83 267.849 426.204C267.849 428.578 268.624 429.911 269.957 429.911ZM277.923 426.064C278.329 425.595 278.837 425.341 279.396 425.341C280.361 425.341 281.237 426.077 282.163 426.077C282.735 426.077 283.23 425.798 283.611 425.277V426.331C283.192 426.813 282.696 427.055 282.138 427.055C281.173 427.055 280.297 426.318 279.358 426.318C278.799 426.318 278.304 426.598 277.923 427.118V426.064ZM291.577 430.927C289.533 430.927 288.365 429.213 288.365 426.204C288.365 423.221 289.558 421.481 291.577 421.481C293.595 421.481 294.789 423.221 294.789 426.204C294.789 429.213 293.608 430.927 291.577 430.927ZM291.577 429.911C292.897 429.911 293.671 428.578 293.671 426.204C293.671 423.83 292.897 422.472 291.577 422.472C290.256 422.472 289.469 423.83 289.469 426.204C289.469 428.578 290.244 429.911 291.577 429.911ZM299.184 430.927C297.255 430.927 295.909 429.86 295.922 428.362C295.909 427.169 296.734 426.191 297.788 426.026V425.976C296.874 425.76 296.277 424.922 296.277 423.919C296.277 422.51 297.509 421.481 299.184 421.481C300.86 421.481 302.092 422.51 302.104 423.919C302.092 424.922 301.482 425.76 300.581 425.976V426.026C301.622 426.191 302.447 427.169 302.46 428.362C302.447 429.86 301.101 430.927 299.184 430.927ZM299.184 429.924C300.505 429.924 301.317 429.264 301.317 428.299C301.317 427.283 300.416 426.534 299.184 426.534C297.953 426.534 297.039 427.283 297.064 428.299C297.039 429.264 297.864 429.924 299.184 429.924ZM299.184 425.569C300.225 425.569 300.987 424.935 300.987 424.008C300.987 423.094 300.263 422.472 299.184 422.472C298.093 422.472 297.382 423.094 297.382 424.008C297.382 424.935 298.131 425.569 299.184 425.569ZM304.583 429.581C304.139 429.581 303.758 429.213 303.771 428.756C303.758 428.312 304.139 427.943 304.583 427.943C305.027 427.943 305.396 428.312 305.396 428.756C305.396 429.213 305.027 429.581 304.583 429.581ZM304.583 424.478C304.139 424.478 303.758 424.109 303.771 423.652C303.758 423.208 304.139 422.84 304.583 422.84C305.027 422.84 305.396 423.208 305.396 423.652C305.396 424.109 305.027 424.478 304.583 424.478ZM309.905 430.927C307.862 430.927 306.694 429.213 306.694 426.204C306.694 423.221 307.887 421.481 309.905 421.481C311.924 421.481 313.117 423.221 313.117 426.204C313.117 429.213 311.937 430.927 309.905 430.927ZM309.905 429.911C311.226 429.911 312 428.578 312 426.204C312 423.83 311.226 422.472 309.905 422.472C308.585 422.472 307.798 423.83 307.798 426.204C307.798 428.578 308.572 429.911 309.905 429.911ZM317.45 430.927C315.406 430.927 314.238 429.213 314.238 426.204C314.238 423.221 315.431 421.481 317.45 421.481C319.468 421.481 320.662 423.221 320.662 426.204C320.662 429.213 319.481 430.927 317.45 430.927ZM317.45 429.911C318.77 429.911 319.544 428.578 319.544 426.204C319.544 423.83 318.77 422.472 317.45 422.472C316.129 422.472 315.342 423.83 315.342 426.204C315.342 428.578 316.117 429.911 317.45 429.911Z" fill="#5F5F5D"/>
<path d="M337.541 430.3L341.541 426.3L337.541 422.3" stroke="#92969E" stroke-width="1.2" stroke-linecap="round" stroke-linejoin="round"/>
<rect x="23" y="454.92" width="344" height="1" fill="#F6F6F6"/>
<path d="M59.3828 468.854C61.2012 468.841 62.5 469.839 62.5 471.329C62.5 472.806 61.2012 473.831 59.3828 473.817C57.5645 473.831 56.2656 472.806 56.2656 471.329C56.2656 469.839 57.5645 468.841 59.3828 468.854ZM59.3828 469.729C58.166 469.716 57.3047 470.386 57.3184 471.329C57.3047 472.286 58.166 472.942 59.3828 472.929C60.6133 472.942 61.4746 472.286 61.4746 471.329C61.4746 470.386 60.6133 469.716 59.3828 469.729ZM65.3984 468.267V480.421H64.3457V468.267H65.3984ZM55.3496 474.856C57.6328 474.856 60.75 474.815 63.457 474.419L63.5254 475.226C62.3633 475.438 61.1533 475.567 59.9844 475.636V480.038H58.918V475.704C57.6807 475.759 56.5117 475.766 55.5 475.772L55.3496 474.856ZM77.298 468.253V480.407H76.218V468.253H77.298ZM71.7609 472.218C71.7609 474.255 73.1828 476.224 75.0148 477.003L74.4133 477.837C73.0119 477.215 71.8225 475.896 71.2551 474.282C70.7082 475.991 69.5256 477.393 68.1242 478.056L67.5227 477.222C69.3273 476.401 70.7082 474.351 70.7082 472.218V471.247H67.8508V470.372H70.6945V468.485H71.7609V470.372H74.591V471.247H71.7609V472.218ZM91.9918 468.253V471.493H93.8238V472.409H91.9918V475.581H90.9254V468.253H91.9918ZM91.9918 476.278V480.243H84.3219V476.278H91.9918ZM85.3746 477.14V479.368H90.9254V477.14H85.3746ZM89.7633 469.552V470.44H82.5172V469.552H85.607V468.157H86.6734V469.552H89.7633ZM86.1402 471.042C87.8902 471.042 89.0523 471.903 89.066 473.202C89.0523 474.528 87.8902 475.376 86.1402 475.376C84.3766 475.376 83.2008 474.528 83.2145 473.202C83.2008 471.903 84.3766 471.042 86.1402 471.042ZM86.1402 471.876C84.9918 471.876 84.2262 472.409 84.2398 473.202C84.2262 474.036 84.9918 474.542 86.1402 474.556C87.275 474.542 88.0406 474.036 88.0543 473.202C88.0406 472.409 87.275 471.876 86.1402 471.876ZM97.4109 469.729C97.3973 472.286 97.0418 475.157 95.2645 477.509L94.4168 477.017C95.9412 475.109 96.3924 472.86 96.4813 470.618H94.6629V469.729H97.4109ZM100.104 469.729C100.097 470.721 100.077 471.862 99.9266 473.038H101.54V468.581H102.565V479.792H101.54V473.927H99.7898C99.5096 475.444 98.9764 476.982 97.9852 478.315L97.1512 477.81C98.8328 475.663 99.1131 472.888 99.1609 470.618H97.7938V469.729H100.104ZM104.848 468.253V480.407H103.809V468.253H104.848ZM113.267 470.796C113.267 471.944 113.889 473.435 115.154 474.282C116.384 473.462 117.013 471.999 117.013 470.796V469.237H118.093V470.796C118.079 472.286 118.968 473.831 120.568 474.501L119.966 475.321C118.777 474.788 117.956 473.79 117.546 472.614C117.15 473.797 116.363 474.891 115.14 475.458C113.903 474.884 113.103 473.742 112.72 472.546C112.289 473.715 111.462 474.774 110.3 475.321L109.726 474.501C111.271 473.79 112.187 472.149 112.2 470.796V469.237H113.267V470.796ZM120.718 477.878V478.767H109.603V477.878H120.718ZM131.551 468.253V480.407H130.471V468.253H131.551ZM127.955 469.579C127.942 473.079 126.315 476.169 122.241 478.124L121.653 477.249C124.941 475.69 126.616 473.359 126.862 470.454H122.213V469.579H127.955Z" fill="#1C1C1C"/>
<path d="M60.6035 488.081C60.6035 488.708 60.5508 489.323 60.4512 489.921H63.0176V486.979H63.9316V497.409H63.0176V493.448H60.1348V492.698H63.0176V490.683H60.2754C59.7246 492.651 58.4297 494.392 55.8457 495.687L55.3184 494.983C57.2344 494.022 58.418 492.821 59.0684 491.409L55.5176 491.749L55.3535 490.952L59.3496 490.683C59.5371 490.103 59.6484 489.487 59.6895 488.843H55.8809V488.081H60.6035ZM70.7512 487.905V488.831H73.1887V487.003H74.1145V494.608H73.1887V491.831H70.7512V492.769H65.9699V487.905H70.7512ZM66.884 488.667V492.03H69.8488V488.667H66.884ZM74.3488 496.413V497.187H67.3762V493.929H68.302V496.413H74.3488ZM70.7512 491.069H73.1887V489.604H70.7512V491.069ZM87.0973 486.991V492.347H86.1715V490.272H83.8629V489.511H86.1715V486.991H87.0973ZM83.7809 487.507C83.7809 490.097 81.9527 491.808 78.9527 492.569L78.6246 491.808C81.1207 491.204 82.6148 489.938 82.8082 488.269H79.1637V487.507H83.7809ZM87.0973 492.792V495.335H81.2848V496.554H87.4488V497.315H80.3707V494.632H86.1715V493.542H80.3473V492.792H87.0973ZM91.4324 487.8C92.8504 487.812 93.8699 489.024 94.0223 490.976H96.3543V486.991H97.2684V497.433H96.3543V491.737H94.034C93.9227 493.776 92.8855 495.054 91.4324 495.054C89.8973 495.054 88.8191 493.647 88.8191 491.433C88.8191 489.218 89.8973 487.812 91.4324 487.8ZM91.4324 488.62C90.4012 488.632 89.698 489.733 89.698 491.433C89.698 493.132 90.4012 494.233 91.4324 494.233C92.452 494.233 93.1668 493.132 93.1668 491.433C93.1668 489.733 92.452 488.632 91.4324 488.62ZM106.947 486.991V489.347H108.518V490.12H106.947V492.3H106.033V486.991H106.947ZM104.111 487.507C104.111 490.132 102.213 491.843 99.1777 492.569L98.8145 491.796C101.41 491.21 102.945 489.915 103.104 488.269H99.2832V487.507H104.111ZM106.947 492.769V495.347H101.229V496.554H107.334V497.315H100.326V494.632H106.033V493.519H100.303V492.769H106.947ZM117.012 487.964C117.012 489.429 118.934 490.706 120.809 490.964L120.434 491.714C118.817 491.444 117.217 490.548 116.543 489.265C115.875 490.554 114.27 491.444 112.653 491.714L112.278 490.964C114.153 490.706 116.063 489.452 116.063 487.964V487.366H117.012V487.964ZM121.278 492.862V493.636H116.965V497.409H116.063V493.636H111.786V492.862H121.278ZM128.296 493.987C128.296 494.907 128.788 495.886 129.784 496.448C130.768 495.833 131.296 494.796 131.296 493.987V493.413H132.198V493.987C132.198 495.054 132.983 496.132 134.319 496.589L133.862 497.269C132.819 496.899 132.087 496.173 131.729 495.3C131.407 496.144 130.768 496.94 129.807 497.351C128.794 496.964 128.149 496.196 127.839 495.323C127.47 496.167 126.749 496.894 125.753 497.269L125.284 496.589C126.596 496.097 127.393 494.983 127.405 493.987V493.413H128.296V493.987ZM133.37 487.003V492.956H132.456V487.003H133.37ZM127.745 487.612C129.327 487.612 130.475 488.597 130.475 490.05C130.475 491.479 129.327 492.464 127.745 492.464C126.163 492.464 125.014 491.479 125.014 490.05C125.014 488.597 126.163 487.612 127.745 487.612ZM127.745 488.397C126.679 488.386 125.905 489.077 125.917 490.05C125.905 491.011 126.679 491.69 127.745 491.702C128.8 491.69 129.573 491.011 129.573 490.05C129.573 489.077 128.8 488.386 127.745 488.397ZM143.365 490.155V490.894H136.229V487.378H137.143V490.155H143.365ZM144.467 492.312V493.062H134.928V492.312H144.467ZM143.424 496.39V497.151H136.17V494.128H137.084V496.39H143.424ZM156.547 486.991V497.409H155.633V491.948H153.149V491.187H155.633V486.991H156.547ZM153.172 488.128C153.172 491.081 151.918 493.706 148.438 495.429L147.934 494.69C150.758 493.325 152.065 491.321 152.246 488.878H148.391V488.128H153.172ZM166.695 486.991V497.433H165.781V486.991H166.695ZM163.531 487.964V491.667H159.64V494.128C161.369 494.128 162.91 494.052 164.773 493.753L164.867 494.526C162.945 494.831 161.363 494.901 159.57 494.901H158.703V490.917H162.605V488.726H158.679V487.964H163.531ZM179.221 486.991V490.167H180.791V490.94H179.221V494.679H178.307V486.991H179.221ZM179.701 496.413V497.187H172.705V493.882H173.607V496.413H179.701ZM174.006 487.729C175.564 487.729 176.736 488.784 176.748 490.296C176.736 491.808 175.564 492.862 174.006 492.862C172.447 492.862 171.264 491.808 171.275 490.296C171.264 488.784 172.447 487.729 174.006 487.729ZM174.006 488.538C172.975 488.538 172.166 489.265 172.178 490.296C172.166 491.327 172.975 492.054 174.006 492.054C175.061 492.054 175.846 491.327 175.846 490.296C175.846 489.265 175.061 488.538 174.006 488.538ZM184.657 487.753C186.298 487.753 187.458 488.749 187.458 490.202C187.458 491.655 186.298 492.651 184.657 492.651C183.017 492.651 181.833 491.655 181.845 490.202C181.833 488.749 183.017 487.753 184.657 487.753ZM184.657 488.562C183.544 488.562 182.736 489.229 182.747 490.202C182.736 491.175 183.544 491.843 184.657 491.843C185.759 491.843 186.556 491.175 186.556 490.202C186.556 489.229 185.759 488.562 184.657 488.562ZM189.79 486.991V497.433H188.876V486.991H189.79ZM181.306 494.351C183.228 494.351 185.876 494.339 188.185 493.999L188.255 494.679C185.876 495.124 183.31 495.136 181.435 495.136L181.306 494.351ZM202.82 486.991V492.3H201.918V486.991H202.82ZM202.82 492.815V495.37H196.984V496.589H203.195V497.327H196.07V494.667H201.918V493.554H196.058V492.815H202.82ZM199.82 487.612V488.362H195.8V491.034C198.009 491.034 199.322 490.946 200.816 490.659L200.933 491.386C199.363 491.69 198.027 491.784 195.73 491.772H194.875V487.612H199.82ZM209.663 487.94V492.733H204.846V487.94H209.663ZM205.749 488.69V491.995H208.772V488.69H205.749ZM212.546 486.991V490.167H214.116V490.94H212.546V494.632H211.632V486.991H212.546ZM213.026 496.413V497.187H206.03V493.905H206.932V496.413H213.026ZM225.529 486.991V489.253H227.099V490.026H225.529V492.3H224.614V486.991H225.529ZM225.529 492.792V495.335H219.81V496.53H225.915V497.269H218.907V494.632H224.614V493.53H218.884V492.792H225.529ZM220.29 487.378C221.861 487.39 222.997 488.327 222.997 489.687C222.997 491.058 221.861 492.007 220.29 492.007C218.732 492.007 217.571 491.058 217.583 489.687C217.571 488.327 218.732 487.39 220.29 487.378ZM220.29 488.151C219.247 488.14 218.474 488.784 218.486 489.687C218.474 490.601 219.247 491.257 220.29 491.257C221.333 491.257 222.095 490.601 222.095 489.687C222.095 488.784 221.333 488.14 220.29 488.151ZM236.18 486.991V497.433H235.266V492.991H233.098V492.218H235.266V490.144H233.18V489.37H235.266V486.991H236.18ZM232.5 487.94V491.644H228.868V494.21C230.432 494.204 231.727 494.146 233.309 493.905L233.391 494.679C231.727 494.937 230.391 494.995 228.727 494.995H227.954V490.894H231.598V488.702H227.918V487.94H232.5ZM247.265 495.3V496.073H237.726V495.3H240.093V492.487C239.203 492.024 238.664 491.274 238.664 490.331C238.664 488.714 240.246 487.659 242.472 487.647C244.699 487.659 246.281 488.714 246.281 490.331C246.281 491.257 245.759 492.001 244.898 492.464V495.3H247.265ZM242.472 488.409C240.761 488.397 239.554 489.171 239.554 490.331C239.554 491.491 240.761 492.276 242.472 492.276C244.171 492.276 245.39 491.491 245.39 490.331C245.39 489.171 244.171 488.397 242.472 488.409ZM240.996 495.3H243.972V492.815C243.521 492.938 243.017 493.003 242.472 493.003C241.939 493.003 241.441 492.944 240.996 492.827V495.3Z" fill="#92969E"/>
<rect x="287.115" y="468.88" width="48" height="28" rx="14" fill="#C61747"/>
<rect x="310.115" y="471.88" width="22" height="22" rx="11" fill="white"/>
<path d="M29.0007 539.586C32.6825 539.586 35.6673 536.601 35.6673 532.92C35.6673 529.238 32.6825 526.253 29.0007 526.253C25.3188 526.253 22.334 529.238 22.334 532.92C22.334 536.601 25.3188 539.586 29.0007 539.586Z" stroke="#5F5F5D" stroke-width="1.2" stroke-linecap="round" stroke-linejoin="round"/>
<path d="M29 535.587V532.92" stroke="#5F5F5D" stroke-width="1.2" stroke-linecap="round" stroke-linejoin="round"/>
<path d="M29 530.253H29.0067" stroke="#5F5F5D" stroke-width="1.2" stroke-linecap="round" stroke-linejoin="round"/>
<path d="M53.4844 528.451V532.752H55.2305V533.514H53.4844V538.869H52.5703V528.451H53.4844ZM51.5625 530.127V530.889H45.3633V530.127H48.0469V528.58H48.9609V530.127H51.5625ZM48.5156 531.756C49.9922 531.756 51.0586 532.74 51.0703 534.146C51.0586 535.553 49.9922 536.537 48.5156 536.537C47.0273 536.537 45.9492 535.553 45.9609 534.146C45.9492 532.74 47.0273 531.756 48.5156 531.756ZM48.5156 532.529C47.543 532.529 46.8281 533.209 46.8398 534.146C46.8281 535.096 47.543 535.764 48.5156 535.752C49.4766 535.764 50.1797 535.096 50.1914 534.146C50.1797 533.209 49.4766 532.529 48.5156 532.529ZM63.9602 528.873V531.58H57.6789V532.928H64.1828V533.689H56.7531V530.854H63.0227V529.623H56.7297V528.873H63.9602ZM65.1203 534.791V535.529H60.7844V538.893H59.8703V535.529H55.5813V534.791H65.1203ZM72.525 533.947V535.857C73.527 535.816 74.5523 535.729 75.5133 535.588L75.5836 536.268C73.2047 536.701 70.6383 536.713 68.7633 536.713L68.6344 535.951C69.5074 535.945 70.5387 535.939 71.6227 535.904V533.947H72.525ZM74.9742 529.822V530.584H72.525C72.5484 531.932 73.6676 533.027 75.2086 533.467L74.775 534.193C73.5211 533.818 72.5426 533.016 72.0797 531.955C71.6227 533.074 70.65 533.906 69.3961 534.287L68.9508 533.584C70.4918 533.133 71.5758 531.99 71.5992 530.584H69.2086V529.822H71.6227V528.533H72.525V529.822H74.9742ZM77.1187 528.451V538.893H76.2047V528.451H77.1187ZM87.6531 528.451V538.869H86.7742V533.408H85.2391V538.33H84.3953V528.686H85.2391V532.646H86.7742V528.451H87.6531ZM83.0359 529.729V530.49H80.0477V535.506C81.4832 535.5 82.4793 535.447 83.6336 535.213L83.7156 535.986C82.4617 536.244 81.3953 536.291 79.8016 536.291H79.1336V529.729H83.0359ZM95.0344 538.037C93.3469 538.037 92.1398 537.135 92.0812 535.787H93.1477C93.2062 536.596 94.0148 537.1 95.0227 537.1C96.1359 537.1 96.9562 536.49 96.9562 535.611C96.9562 534.686 96.218 534.029 94.8937 534.029H94.2023V533.104H94.8937C95.925 533.104 96.6398 532.529 96.6398 531.65C96.6398 530.807 96.0187 530.232 95.0578 530.232C94.1555 530.232 93.3234 530.736 93.2766 531.568H92.257C92.3156 530.221 93.5578 529.318 95.0695 529.318C96.6867 529.318 97.6711 530.373 97.6594 531.592C97.6711 532.553 97.1086 533.268 96.218 533.514V533.572C97.3195 533.748 97.9992 534.533 97.9875 535.611C97.9992 537.006 96.7219 538.037 95.0344 538.037ZM107.573 528.463V536.162H106.647V532.447H104.338V531.674H106.647V528.463H107.573ZM104.385 529.26C104.373 531.932 102.463 533.971 99.4984 534.943L99.1 534.205C101.502 533.414 103.172 531.92 103.377 530.033H99.6273V529.26H104.385ZM107.842 537.873V538.646H100.94V535.377H101.877V537.873H107.842ZM110.818 537.135L109.904 540.322H109.037L109.681 537.135H110.818ZM122.945 528.451V530.889H124.516V531.65H122.945V534.029H122.031V528.451H122.945ZM120.145 529.189C120.133 531.791 118.293 533.525 115.223 534.229L114.836 533.479C117.49 532.898 118.973 531.58 119.125 529.939H115.281V529.189H120.145ZM122.992 534.498V535.201H117.273V536.232H122.875V536.936H117.273V538.014H123.238V538.729H116.348V534.498H122.992ZM134.464 533.947V534.697H124.972V533.947H134.464ZM133.409 537.873V538.646H126.202V535.611H127.128V537.873H133.409ZM129.718 528.826C131.956 528.814 133.398 529.588 133.398 530.889C133.398 532.189 131.956 532.963 129.718 532.963C127.456 532.963 126.027 532.189 126.027 530.889C126.027 529.588 127.456 528.814 129.718 528.826ZM129.718 529.564C128.042 529.564 126.964 530.068 126.976 530.889C126.964 531.709 128.042 532.213 129.718 532.213C131.382 532.213 132.46 531.709 132.46 530.889C132.46 530.068 131.382 529.564 129.718 529.564ZM146.017 528.451V532.693H147.705V533.467H146.017V538.869H145.103V528.451H146.017ZM143.322 529.576C143.322 532.529 141.939 535.213 138.541 536.889L138.025 536.162C140.72 534.82 142.185 532.816 142.396 530.35H138.505V529.576H143.322ZM157.044 528.451V538.869H156.165V528.451H157.044ZM154.852 528.732V538.342H153.973V533.479H151.77C151.132 534.691 150.13 535.764 148.677 536.619L148.137 535.951C150.405 534.609 151.542 532.729 151.712 530.549H148.583V529.787H152.626C152.62 530.812 152.456 531.803 152.11 532.729H153.973V528.732H154.852ZM166.723 531.615V532.354H159.586V528.838H160.5V531.615H166.723ZM167.824 533.771V534.521H158.285V533.771H167.824ZM166.781 537.85V538.611H159.527V535.588H160.441V537.85H166.781ZM179.342 528.451V532.752H181.088V533.514H179.342V538.869H178.428V528.451H179.342ZM177.42 530.127V530.889H171.221V530.127H173.905V528.58H174.819V530.127H177.42ZM174.373 531.756C175.85 531.756 176.916 532.74 176.928 534.146C176.916 535.553 175.85 536.537 174.373 536.537C172.885 536.537 171.807 535.553 171.819 534.146C171.807 532.74 172.885 531.756 174.373 531.756ZM174.373 532.529C173.401 532.529 172.686 533.209 172.698 534.146C172.686 535.096 173.401 535.764 174.373 535.752C175.334 535.764 176.037 535.096 176.049 534.146C176.037 533.209 175.334 532.529 174.373 532.529ZM189.818 528.873V531.58H183.537V532.928H190.041V533.689H182.611V530.854H188.88V529.623H182.587V528.873H189.818ZM190.978 534.791V535.529H186.642V538.893H185.728V535.529H181.439V534.791H190.978ZM197.809 529.436V537.92H196.742V530.537H196.695L194.633 531.908V530.842L196.742 529.436H197.809ZM208.132 528.463V536.162H207.206V532.447H204.898V531.674H207.206V528.463H208.132ZM204.945 529.26C204.933 531.932 203.023 533.971 200.058 534.943L199.659 534.205C202.062 533.414 203.732 531.92 203.937 530.033H200.187V529.26H204.945ZM208.402 537.873V538.646H201.499V535.377H202.437V537.873H208.402ZM214.928 529.4V534.193H210.112V529.4H214.928ZM211.014 530.15V533.455H214.038V530.15H211.014ZM217.811 528.451V531.627H219.381V532.4H217.811V536.092H216.897V528.451H217.811ZM218.291 537.873V538.646H211.295V535.365H212.198V537.873H218.291ZM232.188 536.771V537.533H222.649V536.771H226.938V534.521H223.774V529.189H224.7V531.076H230.114V529.189H231.016V534.521H227.841V536.771H232.188ZM224.7 533.771H230.114V531.826H224.7V533.771ZM241.715 528.451V538.869H240.812V533.479H239.312V538.33H238.445V528.686H239.312V532.693H240.812V528.451H241.715ZM234.262 529.729V535.354C235.299 535.342 236.4 535.271 237.672 535.014L237.789 535.834C236.336 536.092 235.141 536.174 233.992 536.174H233.348V529.729H234.262ZM252.53 536.76V537.533H242.991V536.76H245.359V533.947C244.468 533.484 243.929 532.734 243.929 531.791C243.929 530.174 245.511 529.119 247.738 529.107C249.964 529.119 251.546 530.174 251.546 531.791C251.546 532.717 251.025 533.461 250.163 533.924V536.76H252.53ZM247.738 529.869C246.027 529.857 244.82 530.631 244.82 531.791C244.82 532.951 246.027 533.736 247.738 533.736C249.437 533.736 250.655 532.951 250.655 531.791C250.655 530.631 249.437 529.857 247.738 529.869ZM246.261 536.76H249.238V534.275C248.786 534.398 248.282 534.463 247.738 534.463C247.204 534.463 246.706 534.404 246.261 534.287V536.76ZM254.264 537.99C253.854 537.99 253.502 537.65 253.514 537.229C253.502 536.818 253.854 536.479 254.264 536.479C254.674 536.479 255.014 536.818 255.014 537.229C255.014 537.65 254.674 537.99 254.264 537.99ZM54.0586 552.967V556.729H47.3086V552.967H54.0586ZM48.2109 553.705V555.979H53.1562V553.705H48.2109ZM46.9688 547.084V550.986C48.5977 550.992 49.9746 550.887 51.4922 550.576L51.6094 551.361C49.9922 551.689 48.5742 551.783 46.8398 551.783H46.043V547.084H46.9688ZM54.0586 546.451V552.463H53.1328V549.182H50.1328V548.432H53.1328V546.451H54.0586ZM64.1945 546.463V554.162H63.2805V546.463H64.1945ZM64.5227 555.873V556.646H57.468V553.447H58.382V555.873H64.5227ZM59.3781 548.889C59.3781 550.271 60.4914 551.49 62.05 551.971L61.593 552.709C60.3684 552.316 59.4016 551.484 58.9328 550.4C58.4758 551.566 57.5148 552.469 56.2727 552.896L55.8039 552.17C57.3625 551.666 58.4641 550.354 58.4641 548.889V548.607H56.0617V547.869H58.4641V546.51H59.3898V547.869H61.7688V548.607H59.3781V548.889ZM77.1656 546.451V551.76H76.2633V546.451H77.1656ZM77.1656 552.275V554.83H71.3297V556.049H77.5406V556.787H70.4156V554.127H76.2633V553.014H70.4039V552.275H77.1656ZM74.1656 547.072V547.822H70.1461V550.494C72.3551 550.494 73.6676 550.406 75.1617 550.119L75.2789 550.846C73.7086 551.15 72.3727 551.244 70.0758 551.232H69.2203V547.072H74.1656ZM88.2391 551.947V552.697H78.7469V551.947H88.2391ZM87.1844 555.873V556.646H79.9773V553.611H80.9031V555.873H87.1844ZM83.493 546.826C85.7313 546.814 87.1727 547.588 87.1727 548.889C87.1727 550.189 85.7313 550.963 83.493 550.963C81.2313 550.963 79.8016 550.189 79.8016 548.889C79.8016 547.588 81.2313 546.814 83.493 546.826ZM83.493 547.564C81.8172 547.564 80.7391 548.068 80.7508 548.889C80.7391 549.709 81.8172 550.213 83.493 550.213C85.157 550.213 86.2352 549.709 86.2352 548.889C86.2352 548.068 85.157 547.564 83.493 547.564ZM100.062 553.752V556.729H92.8898V553.752H100.062ZM93.8039 554.467V556.014H99.1594V554.467H93.8039ZM100.671 547.33V548.045H92.2219V547.33H96.0187V546.299H96.9328V547.33H100.671ZM96.4758 548.467C98.632 548.479 99.8508 548.971 99.8508 549.943C99.8508 550.857 98.802 551.344 96.9328 551.408V552.217H101.222V552.955H91.7297V552.217H96.0187V551.408C94.1437 551.344 93.0891 550.857 93.0891 549.943C93.0891 548.971 94.3195 548.479 96.4758 548.467ZM96.4758 549.111C94.9406 549.123 94.0617 549.404 94.0734 549.943C94.0617 550.471 94.9406 550.775 96.4758 550.775C97.9992 550.775 98.8781 550.471 98.8781 549.943C98.8781 549.404 97.9992 549.123 96.4758 549.111ZM110.83 546.451V556.869H109.94V546.451H110.83ZM108.733 546.674V556.342H107.854V551.279H106.518C106.418 553.307 105.557 554.572 104.268 554.572C102.909 554.572 102.03 553.166 102.03 550.951C102.03 548.736 102.909 547.33 104.268 547.33C105.534 547.33 106.389 548.555 106.506 550.518H107.854V546.674H108.733ZM104.268 548.197C103.424 548.197 102.885 549.252 102.897 550.951C102.885 552.639 103.424 553.705 104.268 553.693C105.112 553.705 105.651 552.639 105.651 550.951C105.651 549.252 105.112 548.197 104.268 548.197ZM115.74 549.252C115.74 551.139 116.947 553.037 118.459 553.729L117.908 554.479C116.724 553.869 115.746 552.621 115.283 551.139C114.82 552.697 113.841 554.033 112.658 554.666L112.06 553.928C113.584 553.178 114.802 551.174 114.802 549.252V547.354H115.74V549.252ZM120.709 546.451V556.893H119.795V550.764H117.322V550.014H119.795V546.451H120.709ZM127.234 546.627V547.623H132.391V546.627H133.305V550.049H130.234V551.08H134.547V551.83H125.055V551.08H129.332V550.049H126.32V546.627H127.234ZM127.234 549.334H132.391V548.326H127.234V549.334ZM133.328 552.697V555.006H127.141V556.025H133.645V556.752H126.227V554.326H132.426V553.4H126.203V552.697H133.328ZM143.264 547.424C143.264 548.889 145.186 550.166 147.061 550.424L146.686 551.174C145.069 550.904 143.469 550.008 142.795 548.725C142.127 550.014 140.522 550.904 138.905 551.174L138.53 550.424C140.405 550.166 142.315 548.912 142.315 547.424V546.826H143.264V547.424ZM147.53 552.322V553.096H143.217V556.869H142.315V553.096H138.037V552.322H147.53ZM154.548 553.447C154.548 554.367 155.04 555.346 156.036 555.908C157.02 555.293 157.548 554.256 157.548 553.447V552.873H158.45V553.447C158.45 554.514 159.235 555.592 160.571 556.049L160.114 556.729C159.071 556.359 158.339 555.633 157.981 554.76C157.659 555.604 157.02 556.4 156.059 556.811C155.046 556.424 154.401 555.656 154.091 554.783C153.721 555.627 153.001 556.354 152.005 556.729L151.536 556.049C152.848 555.557 153.645 554.443 153.657 553.447V552.873H154.548V553.447ZM159.622 546.463V552.416H158.708V546.463H159.622ZM153.997 547.072C155.579 547.072 156.727 548.057 156.727 549.51C156.727 550.939 155.579 551.924 153.997 551.924C152.415 551.924 151.266 550.939 151.266 549.51C151.266 548.057 152.415 547.072 153.997 547.072ZM153.997 547.857C152.93 547.846 152.157 548.537 152.169 549.51C152.157 550.471 152.93 551.15 153.997 551.162C155.052 551.15 155.825 550.471 155.825 549.51C155.825 548.537 155.052 547.846 153.997 547.857ZM163.992 547.26C165.41 547.271 166.43 548.484 166.582 550.436H168.914V546.451H169.828V556.893H168.914V551.197H166.594C166.482 553.236 165.445 554.514 163.992 554.514C162.457 554.514 161.379 553.107 161.379 550.893C161.379 548.678 162.457 547.271 163.992 547.26ZM163.992 548.08C162.961 548.092 162.258 549.193 162.258 550.893C162.258 552.592 162.961 553.693 163.992 553.693C165.012 553.693 165.727 552.592 165.727 550.893C165.727 549.193 165.012 548.092 163.992 548.08ZM180.902 554.76V555.533H171.363V554.76H173.73V551.947C172.839 551.484 172.3 550.734 172.3 549.791C172.3 548.174 173.882 547.119 176.109 547.107C178.335 547.119 179.917 548.174 179.917 549.791C179.917 550.717 179.396 551.461 178.534 551.924V554.76H180.902ZM176.109 547.869C174.398 547.857 173.191 548.631 173.191 549.791C173.191 550.951 174.398 551.736 176.109 551.736C177.808 551.736 179.027 550.951 179.027 549.791C179.027 548.631 177.808 547.857 176.109 547.869ZM174.632 554.76H177.609V552.275C177.157 552.398 176.654 552.463 176.109 552.463C175.575 552.463 175.077 552.404 174.632 552.287V554.76ZM182.635 555.99C182.225 555.99 181.873 555.65 181.885 555.229C181.873 554.818 182.225 554.479 182.635 554.479C183.045 554.479 183.385 554.818 183.385 555.229C183.385 555.65 183.045 555.99 182.635 555.99Z" fill="#5F5F5D"/>
<g filter="url(#filter0_d_236_7182)">
<mask id="path-45-inside-1_236_7182" fill="white">
<path d="M0 778.59H390V850.59H0V778.59Z"/>
</mask>
<path d="M0 778.59H390V850.59H0V778.59Z" fill="white"/>
<path d="M0 778.59V779.59H390V778.59V777.59H0V778.59Z" fill="#ECE6DF" mask="url(#path-45-inside-1_236_7182)"/>
<path d="M58.75 813.09V805.09C58.75 804.825 58.6446 804.57 58.4571 804.383C58.2696 804.195 58.0152 804.09 57.75 804.09H53.75C53.4848 804.09 53.2304 804.195 53.0429 804.383C52.8554 804.57 52.75 804.825 52.75 805.09V813.09" stroke="#5F5F5D" stroke-width="1.46667" stroke-linecap="round" stroke-linejoin="round"/>
<path d="M46.75 802.089C46.7499 801.798 46.8133 801.511 46.9358 801.247C47.0582 800.983 47.2368 800.749 47.459 800.561L54.459 794.562C54.82 794.257 55.2774 794.09 55.75 794.09C56.2226 794.09 56.68 794.257 57.041 794.562L64.041 800.561C64.2632 800.749 64.4418 800.983 64.5642 801.247C64.6867 801.511 64.7501 801.798 64.75 802.089V811.089C64.75 811.62 64.5393 812.128 64.1642 812.504C63.7891 812.879 63.2804 813.089 62.75 813.089H48.75C48.2196 813.089 47.7109 812.879 47.3358 812.504C46.9607 812.128 46.75 811.62 46.75 811.089V802.089Z" stroke="#5F5F5D" stroke-width="1.46667" stroke-linecap="round" stroke-linejoin="round"/>
<path d="M57.7744 829.103V831.831H51.2002V829.103H57.7744ZM52.0381 829.758V831.176H56.9473V829.758H52.0381ZM58.333 823.216V823.871H50.5879V823.216H54.0684V822.271H54.9062V823.216H58.333ZM54.4873 824.258C56.4639 824.269 57.5811 824.72 57.5811 825.611C57.5811 826.449 56.6196 826.895 54.9062 826.954V827.695H58.8379V828.372H50.1367V827.695H54.0684V826.954C52.3496 826.895 51.3828 826.449 51.3828 825.611C51.3828 824.72 52.5107 824.269 54.4873 824.258ZM54.4873 824.849C53.0801 824.859 52.2744 825.117 52.2852 825.611C52.2744 826.095 53.0801 826.374 54.4873 826.374C55.8838 826.374 56.6895 826.095 56.6895 825.611C56.6895 825.117 55.8838 824.859 54.4873 824.849Z" fill="#5F5F5D"/>
<path d="M143.25 800.09C143.25 798.499 143.882 796.972 145.007 795.847C146.133 794.722 147.659 794.09 149.25 794.09C150.841 794.09 152.367 794.722 153.493 795.847C154.618 796.972 155.25 798.499 155.25 800.09C155.25 807.09 158.25 809.09 158.25 809.09H140.25C140.25 809.09 143.25 807.09 143.25 800.09Z" stroke="#C61747" stroke-width="1.46667" stroke-linecap="round" stroke-linejoin="round"/>
<path d="M147.551 813.09C147.718 813.394 147.964 813.648 148.263 813.825C148.562 814.002 148.903 814.095 149.251 814.095C149.598 814.095 149.939 814.002 150.238 813.825C150.537 813.648 150.783 813.394 150.951 813.09" stroke="#C61747" stroke-width="1.46667" stroke-linecap="round" stroke-linejoin="round"/>
<path d="M141.603 822.41V824.483H143.042V825.192H141.603V827.276H140.765V822.41H141.603ZM141.603 827.728V830.059H136.36V831.154H141.957V831.831H135.533V829.414H140.765V828.404H135.512V827.728H141.603ZM136.801 822.765C138.24 822.775 139.282 823.635 139.282 824.881C139.282 826.138 138.24 827.008 136.801 827.008C135.372 827.008 134.309 826.138 134.319 824.881C134.309 823.635 135.372 822.775 136.801 822.765ZM136.801 823.474C135.845 823.463 135.136 824.054 135.146 824.881C135.136 825.719 135.845 826.32 136.801 826.32C137.757 826.32 138.455 825.719 138.455 824.881C138.455 824.054 137.757 823.463 136.801 823.474ZM151.328 822.421V828.082H150.49V822.421H151.328ZM148.288 823.001V825.59H144.765V826.911C146.473 826.922 147.751 826.868 149.298 826.61L149.395 827.319C147.794 827.566 146.484 827.62 144.722 827.62H143.948V824.924H147.45V823.678H143.927V823.001H148.288ZM151.328 828.598V831.831H145.119V828.598H151.328ZM145.946 829.285V831.144H150.501V829.285H145.946ZM160.216 822.41V824.956H161.656V825.676H160.216V828.168H159.378V822.41H160.216ZM160.216 828.716V831.831H154.19V828.716H160.216ZM155.017 829.393V831.144H159.378V829.393H155.017ZM158.465 823.431V824.129H152.772V823.431H155.2V822.335H156.038V823.431H158.465ZM155.619 824.602C156.994 824.602 157.907 825.278 157.917 826.299C157.907 827.341 156.994 828.007 155.619 828.007C154.233 828.007 153.309 827.341 153.32 826.299C153.309 825.278 154.233 824.602 155.619 824.602ZM155.619 825.257C154.716 825.257 154.115 825.676 154.125 826.299C154.115 826.954 154.716 827.352 155.619 827.362C156.51 827.352 157.112 826.954 157.122 826.299C157.112 825.676 156.51 825.257 155.619 825.257Z" fill="#C61747"/>
<rect x="134.25" y="779.59" width="28" height="3" rx="1.5" fill="#C61747"/>
<path d="M232.75 801.09C233.546 801.09 234.309 801.406 234.871 801.969C235.434 802.531 235.75 803.294 235.75 804.09C235.75 804.885 235.434 805.649 234.871 806.211C234.309 806.774 233.546 807.09 232.75 807.09V809.09C232.75 809.62 232.961 810.129 233.336 810.504C233.711 810.879 234.22 811.09 234.75 811.09H250.75C251.28 811.09 251.789 810.879 252.164 810.504C252.539 810.129 252.75 809.62 252.75 809.09V807.09C251.954 807.09 251.191 806.774 250.629 806.211C250.066 805.649 249.75 804.885 249.75 804.09C249.75 803.294 250.066 802.531 250.629 801.969C251.191 801.406 251.954 801.09 252.75 801.09V799.09C252.75 798.559 252.539 798.051 252.164 797.676C251.789 797.301 251.28 797.09 250.75 797.09H234.75C234.22 797.09 233.711 797.301 233.336 797.676C232.961 798.051 232.75 798.559 232.75 799.09V801.09Z" stroke="#5F5F5D" stroke-width="1.46667" stroke-linecap="round" stroke-linejoin="round"/>
<path d="M243.75 797.09V799.09" stroke="#5F5F5D" stroke-width="1.46667" stroke-linecap="round" stroke-linejoin="round"/>
<path d="M243.75 809.09V811.09" stroke="#5F5F5D" stroke-width="1.46667" stroke-linecap="round" stroke-linejoin="round"/>
<path d="M243.75 803.09V805.09" stroke="#5F5F5D" stroke-width="1.46667" stroke-linecap="round" stroke-linejoin="round"/>
<path d="M234.79 822.41V831.96H233.963V827.019H232.588V831.466H231.793V822.625H232.588V826.299H233.963V822.41H234.79ZM227.958 823.581V828.737C228.909 828.727 229.918 828.662 231.084 828.426L231.191 829.178C229.859 829.414 228.764 829.489 227.711 829.489H227.12V823.581H227.958ZM246.088 823.012V823.893C246.088 824.875 246.088 825.987 245.755 827.545H247.205V828.254H243.295V831.96H242.447V828.254H238.504V827.545H244.907C245.073 826.863 245.164 826.267 245.218 825.719L239.45 826.02L239.342 825.278L245.272 825.074C245.288 824.655 245.288 824.263 245.293 823.893V823.71H239.611V823.012H246.088ZM255.685 822.851V823.549H254.213V825.74H255.653V826.417H252.581V827.588H256.512V828.275H247.811V827.588H251.743V826.417H248.66V825.74H250.099V823.549H248.628V822.851H255.685ZM255.546 831.047V831.756H248.939V829.113H249.788V831.047H255.546ZM250.937 825.74H253.376V823.549H250.937V825.74Z" fill="#5F5F5D"/>
<path d="M343.25 813.09V811.09C343.25 810.029 342.829 809.012 342.078 808.261C341.328 807.511 340.311 807.09 339.25 807.09H333.25C332.189 807.09 331.172 807.511 330.422 808.261C329.671 809.012 329.25 810.029 329.25 811.09V813.09" stroke="#5F5F5D" stroke-width="1.46667" stroke-linecap="round" stroke-linejoin="round"/>
<path d="M336.25 803.09C338.459 803.09 340.25 801.299 340.25 799.09C340.25 796.881 338.459 795.09 336.25 795.09C334.041 795.09 332.25 796.881 332.25 799.09C332.25 801.299 334.041 803.09 336.25 803.09Z" stroke="#5F5F5D" stroke-width="1.46667" stroke-linecap="round" stroke-linejoin="round"/>
<path d="M328.29 822.41V831.96H327.463V827.019H326.088V831.466H325.293V822.625H326.088V826.299H327.463V822.41H328.29ZM321.458 823.581V828.737C322.409 828.727 323.418 828.662 324.584 828.426L324.691 829.178C323.359 829.414 322.264 829.489 321.211 829.489H320.62V823.581H321.458ZM339.921 822.41V828.104H339.073V825.601H337.15V824.902H339.073V822.41H339.921ZM336.752 828.404C338.74 828.404 339.954 829.049 339.954 830.177C339.954 831.305 338.74 831.949 336.752 831.96C334.765 831.949 333.551 831.305 333.551 830.177C333.551 829.049 334.765 828.404 336.752 828.404ZM336.752 829.06C335.291 829.06 334.378 829.479 334.389 830.177C334.378 830.864 335.291 831.283 336.752 831.283C338.213 831.283 339.116 830.864 339.116 830.177C339.116 829.479 338.213 829.06 336.752 829.06ZM335.324 824.161C335.324 825.407 336.28 826.589 337.676 827.072L337.236 827.749C336.162 827.362 335.329 826.562 334.926 825.568C334.507 826.691 333.621 827.588 332.488 828.018L332.047 827.341C333.465 826.825 334.475 825.536 334.475 824.172V823.817H332.316V823.108H337.461V823.817H335.324V824.161ZM350.055 830.037V830.735H341.311V830.037H345.243V827.975H342.342V823.087H343.191V824.816H348.154V823.087H348.981V827.975H346.07V830.037H350.055ZM343.191 827.287H348.154V825.504H343.191V827.287Z" fill="#5F5F5D"/>
</g>
</g>
<rect x="0.5" y="0.5" width="389" height="849.59" stroke="#F6F6F6"/>
<defs>
<filter id="filter0_d_236_7182" x="-12" y="764.59" width="414" height="96" filterUnits="userSpaceOnUse" color-interpolation-filters="sRGB">
<feFlood flood-opacity="0" result="BackgroundImageFix"/>
<feColorMatrix in="SourceAlpha" type="matrix" values="0 0 0 0 0 0 0 0 0 0 0 0 0 0 0 0 0 0 127 0" result="hardAlpha"/>
<feOffset dy="-2"/>
<feGaussianBlur stdDeviation="6"/>
<feColorMatrix type="matrix" values="0 0 0 0 0.11 0 0 0 0 0.11 0 0 0 0 0.11 0 0 0 0.05 0"/>
<feBlend mode="normal" in2="BackgroundImageFix" result="effect1_dropShadow_236_7182"/>
<feBlend mode="normal" in="SourceGraphic" in2="effect1_dropShadow_236_7182" result="shape"/>
</filter>
<clipPath id="clip0_236_7182">
<rect width="390" height="850.59" fill="white"/>
</clipPath>
</defs>
</svg>
