<svg width="390" height="853" viewBox="0 0 390 853" fill="none" xmlns="http://www.w3.org/2000/svg">
<g clip-path="url(#clip0_236_5167)">
<rect width="390" height="852.82" fill="white"/>
<path d="M1 1H389V57H1V1Z" fill="#F6F6F6"/>
<path d="M34.75 34L29.25 28.5L34.75 23" stroke="#1C1C1C" stroke-width="1.83333" stroke-linecap="round" stroke-linejoin="round"/>
<path d="M66.4805 20.4199V35.5273H64.4385V27.9736H63.0273V34.7969H61.0352V20.6689H63.0273V26.2637H64.4385V20.4199H66.4805ZM56.1875 22.0967V29.9824C57.3994 29.9575 58.7275 29.8496 60.1885 29.5674L60.4043 31.3936C58.3789 31.7422 56.6523 31.8418 55.0918 31.8418H54.0625V22.0967H56.1875ZM83.992 20.4199V29.3848H81.8836V25.8154H79.5262V24.1055H81.8836V20.4199H83.992ZM78.8289 29.7168C82.0496 29.7334 84.0252 30.7959 84.0418 32.6387C84.0252 34.4648 82.0496 35.5439 78.8289 35.5439C75.6082 35.5439 73.6326 34.4648 73.6326 32.6387C73.6326 30.7959 75.6082 29.7334 78.8289 29.7168ZM78.8289 31.3438C76.8201 31.3438 75.741 31.7588 75.741 32.6387C75.741 33.502 76.8201 33.9336 78.8289 33.9336C80.8377 33.9336 81.9334 33.502 81.9334 32.6387C81.9334 31.7588 80.8377 31.3438 78.8289 31.3438ZM79.9744 21.333V23.0264H76.9695C77.0193 24.7861 78.0818 26.5625 80.4393 27.3428L79.3934 29.0029C77.7249 28.4634 76.5794 27.3677 75.9236 25.998C75.2513 27.542 74.0477 28.7871 72.2547 29.4014L71.159 27.7246C73.6409 26.8945 74.7532 24.9189 74.8113 23.0264H71.7732V21.333H79.9744ZM99.3801 32.041V33.7676H85.551V32.041H91.3781V29.252H87.0119V21.3828H89.1369V23.7236H95.7277V21.3828H97.8361V29.252H93.4865V32.041H99.3801ZM89.1369 27.5586H95.7277V25.417H89.1369V27.5586Z" fill="#1C1C1C"/>
<g clip-path="url(#clip1_236_5167)">
<rect x="21.5" y="75.1001" width="347" height="85" rx="15.5" fill="white"/>
<rect x="21.5" y="75.1001" width="347" height="85" rx="15.5" stroke="#F6F6F6"/>
<rect x="46.0254" y="92.6001" width="52" height="50" rx="25" fill="#FDECEF"/>
<path d="M77.7012 109.143V119.436H75.2012V118.87H71.9785V117.366H75.2012V109.143H77.7012ZM62.6426 115.393C66.0801 115.413 70.3379 115.374 74.1465 115.022L74.2637 116.565C72.6914 116.78 71.0801 116.917 69.498 116.995V119.475H67.0371V117.092C65.582 117.131 64.1855 117.131 62.8965 117.112L62.6426 115.393ZM77.7012 119.963V124.124H67.7012V125.042H78.1113V126.78H65.2598V122.522H75.2207V121.643H65.1816V119.963H77.7012ZM68.3652 109.377C71.002 109.377 72.8184 110.452 72.8379 112.053C72.8184 113.713 71.002 114.709 68.3652 114.709C65.6504 114.709 63.8535 113.713 63.8535 112.053C63.8535 110.452 65.6504 109.377 68.3652 109.377ZM68.3652 111.018C67.0176 110.999 66.1973 111.409 66.2168 112.053C66.1973 112.717 67.0176 113.088 68.3652 113.088C69.6738 113.088 70.5137 112.717 70.5137 112.053C70.5137 111.409 69.6738 110.999 68.3652 111.018Z" fill="#C61747"/>
<path d="M122.494 101.475V109.709H120.494V109.256H117.916V108.053H120.494V101.475H122.494ZM110.447 106.475C113.197 106.49 116.604 106.459 119.65 106.178L119.744 107.412C118.486 107.584 117.197 107.693 115.932 107.756V109.74H113.963V107.834C112.799 107.865 111.682 107.865 110.65 107.85L110.447 106.475ZM122.494 110.131V113.459H114.494V114.193H122.822V115.584H112.541V112.178H120.51V111.475H112.479V110.131H122.494ZM115.025 101.662C117.135 101.662 118.588 102.521 118.604 103.803C118.588 105.131 117.135 105.928 115.025 105.928C112.854 105.928 111.416 105.131 111.416 103.803C111.416 102.521 112.854 101.662 115.025 101.662ZM115.025 102.975C113.947 102.959 113.291 103.287 113.307 103.803C113.291 104.334 113.947 104.631 115.025 104.631C116.072 104.631 116.744 104.334 116.744 103.803C116.744 103.287 116.072 102.959 115.025 102.975ZM136.404 101.459V115.678H134.529V101.459H136.404ZM133.435 101.771V115.053H131.544V110.365H129.529V108.756H131.544V106.818H129.794C129.13 109.162 127.693 111.146 125.029 112.725L123.857 111.318C126.739 109.615 128.005 107.545 128.279 104.756H124.685V103.146H130.263C130.263 103.857 130.216 104.545 130.138 105.209H131.544V101.771H133.435ZM144.891 102.443V109.006H138.125V102.443H144.891ZM140.094 104.021V107.428H142.922V104.021H140.094ZM148.985 101.459V105.006H150.907V106.662H148.985V110.85H146.985V101.459H148.985ZM145.407 110.537C145.407 112.115 146.907 113.662 149.938 114.053L149.157 115.615C146.93 115.271 145.305 114.311 144.438 112.975C143.571 114.311 141.946 115.271 139.704 115.615L138.938 114.053C141.938 113.662 143.438 112.115 143.438 110.537V110.178H145.407V110.537ZM158.582 102.256V103.865H153.879V104.975H158.285V106.553H153.879V107.709C156.191 107.709 157.675 107.639 159.347 107.318L159.566 108.896C157.644 109.225 155.925 109.287 153.05 109.271H151.863V102.256H158.582ZM162.613 110.396V115.521H153.316V110.396H162.613ZM155.285 111.943V113.928H160.644V111.943H155.285ZM162.613 101.459V104.787H164.535V106.428H162.613V109.771H160.613V101.459H162.613ZM176.944 101.459V110.053H174.96V107.256H173.116V105.631H174.96V101.459H176.944ZM176.944 110.662V115.521H167.382V110.662H176.944ZM169.382 112.225V113.928H174.991V112.225H169.382ZM173.366 102.693V104.287H164.991V102.693H168.21V101.334H170.179V102.693H173.366ZM169.194 104.756C171.194 104.756 172.6 105.818 172.6 107.303C172.6 108.85 171.194 109.881 169.194 109.881C167.21 109.881 165.772 108.85 165.772 107.303C165.772 105.818 167.21 104.756 169.194 104.756ZM169.194 106.256C168.272 106.256 167.679 106.631 167.694 107.303C167.679 108.021 168.272 108.412 169.194 108.412C170.1 108.412 170.694 108.021 170.694 107.303C170.694 106.631 170.1 106.256 169.194 106.256ZM189.807 101.459V106.912H191.822V108.553H189.807V115.646H187.807V101.459H189.807ZM186.01 102.912C185.994 107.162 184.338 110.85 179.557 113.193L178.432 111.662C181.799 109.975 183.604 107.709 183.979 104.537H179.244V102.912H186.01Z" fill="#1C1C1C"/>
<path d="M115.85 124.582C115.838 127.593 114.818 130.347 111.068 132.187L110.553 131.484C112.516 130.535 113.693 129.328 114.326 127.921L110.752 128.261L110.6 127.453L114.607 127.183C114.789 126.597 114.895 125.982 114.936 125.343H111.127V124.582H115.85ZM118.51 123.492V127.734H120.197V128.507H118.51V133.91H117.596V123.492H118.51ZM126.021 124.582C126.009 127.593 124.989 130.347 121.239 132.187L120.724 131.484C122.687 130.535 123.864 129.328 124.497 127.921L120.923 128.261L120.771 127.453L124.779 127.183C124.96 126.597 125.066 125.982 125.107 125.343H121.298V124.582H126.021ZM128.681 123.492V127.734H130.368V128.507H128.681V133.91H127.767V123.492H128.681ZM135.536 124.171C137.75 124.183 139.344 125.261 139.344 126.902C139.344 128.455 137.961 129.486 135.981 129.609V131.8H140.329V132.574H130.789V131.8H135.079V129.609C133.104 129.48 131.727 128.449 131.727 126.902C131.727 125.261 133.321 124.183 135.536 124.171ZM135.536 124.933C133.848 124.933 132.618 125.73 132.618 126.902C132.618 128.109 133.848 128.882 135.536 128.894C137.223 128.882 138.454 128.109 138.454 126.902C138.454 125.73 137.223 124.933 135.536 124.933ZM152.69 123.492V133.91H151.811V123.492H152.69ZM150.581 123.773V133.382H149.702V129.773H147.768V129.011H149.702V127.16H147.944C147.434 128.923 146.292 130.482 144.323 131.66L143.761 130.992C146.028 129.65 147.165 127.769 147.346 125.589H144.229V124.828H148.261C148.261 125.361 148.214 125.888 148.12 126.398H149.702V123.773H150.581ZM162.58 123.492V129.703H161.654V126.972H159.557V126.21H161.654V123.492H162.58ZM159.123 130.031C161.291 130.031 162.615 130.734 162.615 131.964C162.615 133.195 161.291 133.898 159.123 133.91C156.955 133.898 155.631 133.195 155.631 131.964C155.631 130.734 156.955 130.031 159.123 130.031ZM159.123 130.746C157.529 130.746 156.533 131.203 156.545 131.964C156.533 132.714 157.529 133.171 159.123 133.171C160.717 133.171 161.701 132.714 161.701 131.964C161.701 131.203 160.717 130.746 159.123 130.746ZM157.564 125.402C157.564 126.761 158.607 128.05 160.131 128.578L159.65 129.316C158.479 128.894 157.57 128.021 157.131 126.937C156.674 128.162 155.707 129.14 154.471 129.609L153.99 128.871C155.537 128.308 156.639 126.902 156.639 125.414V125.027H154.283V124.253H159.896V125.027H157.564V125.402ZM168.861 124.171C171.04 124.171 172.669 125.308 172.669 127.031C172.669 128.765 171.04 129.902 168.861 129.89C166.681 129.902 165.052 128.765 165.052 127.031C165.052 125.308 166.681 124.171 168.861 124.171ZM168.861 124.921C167.185 124.91 165.919 125.789 165.931 127.031C165.919 128.296 167.185 129.14 168.861 129.14C170.525 129.14 171.779 128.296 171.779 127.031C171.779 125.789 170.525 124.91 168.861 124.921ZM173.654 131.753V132.527H164.114V131.753H173.654ZM183.825 131.847V132.621H174.286V131.847H178.575V129.878H175.481V126.667H181.715V125.027H175.457V124.265H182.618V127.417H176.395V129.117H182.864V129.878H179.477V131.847H183.825ZM196.807 131.847V132.621H187.268V131.847H191.557V129.878H188.464V126.667H194.698V125.027H188.44V124.265H195.6V127.417H189.378V129.117H195.846V129.878H192.46V131.847H196.807ZM205.654 124.605V125.648C205.654 126.96 205.654 128.449 205.268 130.71L204.33 130.617C204.752 128.484 204.752 126.925 204.752 125.648V125.367H198.471V124.605H205.654ZM206.932 131.613V132.375H197.439V131.613H206.932ZM216.212 123.503V131.121H215.298V123.503H216.212ZM216.54 132.914V133.687H209.486V130.347H210.4V132.914H216.54ZM210.587 124.23C212.146 124.23 213.318 125.285 213.318 126.785C213.318 128.308 212.146 129.351 210.587 129.351C209.029 129.351 207.857 128.308 207.857 126.785C207.857 125.285 209.029 124.23 210.587 124.23ZM210.587 125.039C209.532 125.039 208.747 125.765 208.759 126.785C208.747 127.828 209.532 128.542 210.587 128.542C211.618 128.542 212.415 127.828 212.415 126.785C212.415 125.765 211.618 125.039 210.587 125.039Z" fill="#5F5F5D"/>
<rect x="288.865" y="102.14" width="54.61" height="30.92" rx="14.5" fill="white"/>
<rect x="288.865" y="102.14" width="54.61" height="30.92" rx="14.5" stroke="#F6F6F6"/>
<path d="M311.014 113.104C311.014 114.569 312.936 115.846 314.811 116.104L314.436 116.854C312.818 116.584 311.219 115.688 310.545 114.405C309.877 115.694 308.271 116.584 306.654 116.854L306.279 116.104C308.154 115.846 310.064 114.592 310.064 113.104V112.506H311.014V113.104ZM315.279 118.002V118.776H310.967V122.549H310.064V118.776H305.787V118.002H315.279ZM324.595 112.131V118.342H323.669V115.612H321.571V114.85H323.669V112.131H324.595ZM321.138 118.67C323.306 118.67 324.63 119.374 324.63 120.604C324.63 121.834 323.306 122.538 321.138 122.549C318.97 122.538 317.646 121.834 317.646 120.604C317.646 119.374 318.97 118.67 321.138 118.67ZM321.138 119.385C319.544 119.385 318.548 119.842 318.56 120.604C318.548 121.354 319.544 121.811 321.138 121.811C322.732 121.811 323.716 121.354 323.716 120.604C323.716 119.842 322.732 119.385 321.138 119.385ZM319.579 114.042C319.579 115.401 320.622 116.69 322.146 117.217L321.665 117.956C320.493 117.534 319.585 116.661 319.146 115.577C318.689 116.801 317.722 117.78 316.486 118.249L316.005 117.51C317.552 116.948 318.654 115.542 318.654 114.053V113.667H316.298V112.893H321.911V113.667H319.579V114.042Z" fill="#1C1C1C"/>
<rect x="21.5" y="173.1" width="347" height="67.59" rx="15.5" fill="white"/>
<rect x="21.5" y="173.1" width="347" height="67.59" rx="15.5" stroke="#F6F6F6"/>
<path d="M82.3945 192.212C82.3945 194.052 83.6133 195.938 85.0898 196.665L84.5273 197.403C83.3789 196.8 82.418 195.569 81.9609 194.122C81.4922 195.663 80.5078 196.976 79.3359 197.603L78.75 196.864C80.2734 196.114 81.4805 194.11 81.4922 192.212V190.313H82.3945V192.212ZM86.9648 189.411V193.642H88.7109V194.438H86.9648V199.829H86.0508V189.411H86.9648ZM98.5656 194.567V195.329H89.0734V194.567H91.4289V193.103C90.5969 192.78 90.1281 192.247 90.1281 191.544C90.1281 190.313 91.5344 189.61 93.8195 189.61C96.0813 189.61 97.4992 190.313 97.4992 191.544C97.4992 192.241 97.0363 192.774 96.2102 193.091V194.567H98.5656ZM93.8195 196.126C96.0578 196.126 97.3938 196.771 97.4055 197.966C97.3938 199.149 96.0578 199.806 93.8195 199.806C91.5578 199.806 90.2219 199.149 90.2219 197.966C90.2219 196.771 91.5578 196.126 93.8195 196.126ZM93.8195 196.829C92.1438 196.841 91.1477 197.251 91.1594 197.966C91.1477 198.669 92.1438 199.091 93.8195 199.091C95.4719 199.091 96.4797 198.669 96.4797 197.966C96.4797 197.251 95.4719 196.841 93.8195 196.829ZM93.8195 190.337C92.1203 190.337 91.0656 190.794 91.0773 191.544C91.0656 192.306 92.1203 192.751 93.8195 192.751C95.507 192.751 96.5617 192.306 96.5617 191.544C96.5617 190.794 95.507 190.337 93.8195 190.337ZM92.343 194.567H95.2961V193.349C94.8566 193.425 94.3645 193.466 93.8195 193.466C93.2746 193.466 92.7824 193.425 92.343 193.349V194.567ZM107.389 189.423V192.856H108.959V193.63H107.389V197.228H106.475V189.423H107.389ZM105.479 190.7V191.45H99.268V190.7H101.916V189.423H102.83V190.7H105.479ZM102.373 192.024C103.862 192.024 104.87 192.786 104.881 193.97C104.87 195.142 103.862 195.892 102.373 195.892C100.873 195.892 99.8539 195.142 99.8656 193.97C99.8539 192.786 100.873 192.024 102.373 192.024ZM102.373 192.751C101.389 192.751 100.733 193.231 100.745 193.97C100.733 194.708 101.389 195.177 102.373 195.165C103.346 195.177 104.002 194.708 104.014 193.97C104.002 193.231 103.346 192.751 102.373 192.751ZM107.87 198.833V199.606H100.873V196.606H101.776V198.833H107.87ZM120.501 190.067V191.028C120.501 192.101 120.501 193.313 120.138 195.013H121.72V195.786H117.454V199.829H116.528V195.786H112.227V195.013H119.212C119.393 194.269 119.493 193.618 119.552 193.021L113.259 193.349L113.141 192.54L119.61 192.317C119.628 191.86 119.628 191.433 119.634 191.028V190.829H113.434V190.067H120.501ZM130.988 189.892V190.653H129.383V193.044H130.953V193.782H127.602V195.06H131.891V195.81H122.398V195.06H126.688V193.782H123.324V193.044H124.895V190.653H123.289V189.892H130.988ZM130.836 198.833V199.606H123.629V196.724H124.555V198.833H130.836ZM125.809 193.044H128.469V190.653H125.809V193.044Z" fill="#5F5F5D"/>
<path d="M252.572 190.22C254.107 190.231 255.197 191.638 255.209 193.853C255.197 196.067 254.107 197.474 252.572 197.474C251.025 197.474 249.947 196.067 249.947 193.853C249.947 191.638 251.025 190.231 252.572 190.22ZM252.572 191.04C251.541 191.052 250.814 192.153 250.814 193.853C250.814 195.552 251.541 196.653 252.572 196.653C253.615 196.653 254.318 195.552 254.318 193.853C254.318 192.153 253.615 191.052 252.572 191.04ZM257.846 189.411V193.571H259.592V194.368H257.846V199.829H256.932V189.411H257.846ZM268.556 189.435V196.97H267.618V189.435H268.556ZM268.849 198.833V199.606H261.724V196.431H262.638V198.833H268.849ZM263.118 190.302C263.118 192.411 262.521 194.052 260.763 195.388L260.13 194.813C261.507 193.788 262.111 192.634 262.239 191.075H260.341V190.302H263.118ZM266.142 190.302C266.13 192.47 265.638 194.356 263.821 195.892L263.165 195.329C264.613 194.14 265.163 192.751 265.275 191.075H263.54V190.302H266.142ZM281.222 189.974V190.747C281.222 191.556 281.222 192.505 280.953 193.806H282.476V194.567H272.937V193.806H280.027C280.308 192.499 280.308 191.556 280.308 190.747V190.735H274.144V189.974H281.222ZM281.269 196.009V199.688H274.109V196.009H281.269ZM275.023 196.735V198.938H280.355V196.735H275.023ZM285.604 190.067C286.975 190.067 287.995 191.087 287.995 192.528C287.995 193.981 286.975 194.966 285.604 194.966C284.21 194.966 283.214 193.981 283.225 192.528C283.214 191.087 284.21 190.067 285.604 190.067ZM285.604 190.864C284.714 190.864 284.046 191.567 284.057 192.528C284.046 193.489 284.714 194.192 285.604 194.192C286.495 194.192 287.139 193.489 287.151 192.528C287.139 191.567 286.495 190.864 285.604 190.864ZM291.956 189.423V195.622H291.077V192.868H289.694V195.552H288.827V189.622H289.694V192.106H291.077V189.423H291.956ZM291.956 196.208V199.829H291.054V196.946H284.936V196.208H291.956Z" fill="#5F5F5D"/>
<path d="M96.3154 221.076C93.6758 221.076 91.7832 219.615 91.7334 217.523H94.2568C94.3066 218.42 95.1699 219.018 96.332 219.018C97.5273 219.018 98.3906 218.337 98.374 217.374C98.3906 216.395 97.5107 215.697 96.0996 215.697H94.9873V213.854H96.0996C97.2783 213.854 98.1084 213.207 98.1084 212.261C98.1084 211.348 97.4111 210.717 96.3486 210.717C95.2861 210.717 94.4062 211.314 94.373 212.228H91.9824C92.0156 210.152 93.8916 208.725 96.3486 208.725C98.8555 208.725 100.532 210.202 100.516 212.111C100.532 213.456 99.5859 214.419 98.2412 214.651V214.751C100.001 214.967 100.98 216.046 100.964 217.54C100.98 219.599 99.0215 221.076 96.3154 221.076ZM115.058 207.33V222.438H113.016V214.751H111.638V221.773H109.662V207.729H111.638V213.058H113.016V207.33H115.058ZM108.6 209.189C108.583 213.406 107.321 216.859 103.071 219.333L101.843 217.872C104.923 216.062 106.242 213.846 106.541 210.883H102.607V209.189H108.6Z" fill="#1C1C1C"/>
<path d="M253.179 208.725C255.669 208.741 258.026 210.219 258.026 214.585C258.043 218.669 256.101 221.076 253.079 221.076C250.655 221.076 249.012 219.565 248.763 217.523H251.22C251.419 218.403 252.116 218.935 253.079 218.935C254.723 218.935 255.586 217.474 255.586 215.066H255.486C254.922 216.129 253.743 216.76 252.398 216.76C250.24 216.76 248.646 215.133 248.63 212.892C248.63 210.468 250.456 208.708 253.179 208.725ZM253.195 210.684C251.967 210.684 251.054 211.63 251.07 212.825C251.07 214.004 251.95 214.934 253.179 214.934C254.391 214.934 255.337 213.971 255.337 212.809C255.32 211.663 254.424 210.684 253.195 210.684ZM261.728 219.682L260.3 224.413H258.54L259.37 219.682H261.728ZM267.753 221.076C265.014 221.076 263.038 219.632 263.038 217.673C263.038 216.162 264.201 214.934 265.695 214.701V214.618C264.4 214.369 263.503 213.273 263.503 211.962C263.503 210.086 265.296 208.725 267.753 208.725C270.21 208.725 272.003 210.086 272.02 211.962C272.003 213.29 271.09 214.369 269.829 214.618V214.701C271.289 214.934 272.468 216.162 272.468 217.673C272.468 219.632 270.493 221.076 267.753 221.076ZM267.753 219.167C269.015 219.167 269.862 218.453 269.862 217.424C269.862 216.378 268.982 215.614 267.753 215.614C266.525 215.614 265.628 216.378 265.645 217.424C265.628 218.453 266.475 219.167 267.753 219.167ZM267.753 213.854C268.816 213.854 269.579 213.174 269.579 212.211C269.579 211.281 268.832 210.617 267.753 210.617C266.674 210.617 265.944 211.265 265.944 212.211C265.944 213.174 266.691 213.854 267.753 213.854ZM278.643 221.076C275.638 221.076 273.812 218.835 273.812 214.9C273.812 210.966 275.638 208.725 278.643 208.725C281.648 208.725 283.474 210.982 283.474 214.9C283.474 218.852 281.648 221.076 278.643 221.076ZM278.643 219.018C280.038 219.018 280.934 217.673 280.918 214.9C280.918 212.161 280.038 210.767 278.643 210.767C277.249 210.767 276.369 212.161 276.369 214.9C276.352 217.673 277.249 219.018 278.643 219.018ZM289.666 221.076C286.661 221.076 284.835 218.835 284.835 214.9C284.835 210.966 286.661 208.725 289.666 208.725C292.671 208.725 294.497 210.982 294.497 214.9C294.497 218.852 292.671 221.076 289.666 221.076ZM289.666 219.018C291.06 219.018 291.957 217.673 291.94 214.9C291.94 212.161 291.06 210.767 289.666 210.767C288.271 210.767 287.391 212.161 287.391 214.9C287.375 217.673 288.271 219.018 289.666 219.018ZM308.325 207.347V218.752H306.2V217.557H303.312V216.112H306.2V207.347H308.325ZM308.657 220.479V222.172H297.401V217.656H299.51V215.647C298.157 215.706 296.87 215.714 295.725 215.714L295.476 214.037C298.248 214.021 301.983 213.987 305.171 213.589L305.287 215.1C304.092 215.299 302.855 215.44 301.635 215.531V218.403H299.51V220.479H308.657ZM300.39 207.861C302.581 207.845 304.158 208.957 304.158 210.567C304.158 212.178 302.581 213.224 300.39 213.224C298.148 213.224 296.588 212.178 296.588 210.567C296.588 208.957 298.132 207.845 300.39 207.861ZM300.39 209.405C299.311 209.405 298.58 209.82 298.597 210.567C298.58 211.298 299.311 211.696 300.39 211.696C301.402 211.696 302.133 211.298 302.149 210.567C302.133 209.82 301.402 209.405 300.39 209.405Z" fill="#C61747"/>
<rect x="21.5" y="253.69" width="347" height="285.52" rx="15.5" fill="white"/>
<rect x="21.5" y="253.69" width="347" height="285.52" rx="15.5" stroke="#F6F6F6"/>
<path d="M51.043 280.386V281.822H56.1016V282.71H44.9727V281.822H49.9902V280.386H51.043ZM55.0762 277.146V277.994H51.2344C51.3232 279.238 53.3604 280.147 55.4727 280.318L55.1172 281.125C53.0938 280.933 51.1865 280.147 50.5371 278.869C49.874 280.147 47.9668 280.933 45.9297 281.125L45.5742 280.318C47.6729 280.147 49.71 279.238 49.8262 277.994H45.998V277.146H55.0762ZM55.0488 284.324V285.171H46.0254V284.324H49.9902V283.175H51.0566V284.324H55.0488ZM50.5234 285.773C52.8613 285.773 54.2012 286.32 54.2012 287.373C54.2012 288.439 52.8613 288.986 50.5234 288.986C48.1582 288.986 46.8594 288.439 46.8594 287.373C46.8594 286.32 48.1582 285.773 50.5234 285.773ZM50.5234 286.525C48.8828 286.539 47.9395 286.812 47.9395 287.373C47.9395 287.933 48.8828 288.248 50.5234 288.234C52.1777 288.248 53.0938 287.933 53.1074 287.373C53.0938 286.812 52.1777 286.539 50.5234 286.525ZM60.1398 277.707C61.9309 277.72 63.2023 279.361 63.216 281.945C63.2023 284.529 61.9309 286.169 60.1398 286.169C58.3352 286.169 57.0773 284.529 57.0773 281.945C57.0773 279.361 58.3352 277.72 60.1398 277.707ZM60.1398 278.664C58.9367 278.677 58.0891 279.962 58.0891 281.945C58.0891 283.927 58.9367 285.212 60.1398 285.212C61.3566 285.212 62.177 283.927 62.177 281.945C62.177 279.962 61.3566 278.677 60.1398 278.664ZM66.2922 276.763V281.617H68.3293V282.546H66.2922V288.917H65.2258V276.763H66.2922ZM78.1918 276.763V281.781H80.2289V282.669H78.1918V288.917H77.1254V276.763H78.1918ZM75.9496 278.718V279.607H68.7172V278.718H71.848V276.914H72.9145V278.718H75.9496ZM72.3949 280.619C74.1176 280.619 75.3617 281.767 75.3754 283.408C75.3617 285.048 74.1176 286.197 72.3949 286.197C70.6586 286.197 69.4008 285.048 69.4145 283.408C69.4008 281.767 70.6586 280.619 72.3949 280.619ZM72.3949 281.521C71.2602 281.521 70.4262 282.314 70.4398 283.408C70.4262 284.515 71.2602 285.294 72.3949 285.281C73.516 285.294 74.3363 284.515 74.35 283.408C74.3363 282.314 73.516 281.521 72.3949 281.521ZM90.5152 280.455V281.316H82.1891V277.214H83.2555V280.455H90.5152ZM91.8004 282.97V283.845H80.6715V282.97H91.8004ZM90.5836 287.728V288.617H82.1207V285.089H83.1871V287.728H90.5836ZM105.305 276.763V281.712H107.273V282.615H105.305V288.917H104.238V276.763H105.305ZM102.16 278.076C102.16 281.521 100.547 284.652 96.582 286.607L95.9805 285.759C99.125 284.194 100.834 281.856 101.08 278.978H96.541V278.076H102.16ZM118.202 276.763V288.917H117.177V276.763H118.202ZM115.646 277.091V288.302H114.62V282.628H112.05C111.305 284.043 110.136 285.294 108.441 286.292L107.812 285.513C110.457 283.948 111.783 281.753 111.982 279.21H108.331V278.322H113.048C113.041 279.518 112.85 280.673 112.446 281.753H114.62V277.091H115.646ZM120.983 284.365C120.504 284.365 120.094 283.968 120.108 283.476C120.094 282.998 120.504 282.601 120.983 282.601C121.461 282.601 121.858 282.998 121.858 283.476C121.858 283.968 121.461 284.365 120.983 284.365ZM133.115 276.763V288.917H132.048V282.546H129.15V281.658H132.048V276.763H133.115ZM129.177 278.089C129.177 281.535 127.714 284.597 123.654 286.607L123.066 285.746C126.361 284.153 127.885 281.815 128.097 278.964H123.599V278.089H129.177ZM144.987 276.763V288.945H143.921V276.763H144.987ZM141.296 277.898V282.218H136.757V285.089C138.773 285.089 140.571 285 142.745 284.652L142.854 285.554C140.612 285.91 138.766 285.992 136.675 285.992H135.663V281.343H140.216V278.787H135.636V277.898H141.296Z" fill="#1C1C1C"/>
<path d="M335.504 287.31L339.504 283.31L335.504 279.31" stroke="#9A9893" stroke-width="1.2" stroke-linecap="round" stroke-linejoin="round"/>
<rect x="23" y="311.19" width="344" height="1" fill="#F6F6F6"/>
<path d="M51.834 333.523V345.677H50.7812V339.388H49.0312V345.048H48.0195V333.796H49.0312V338.472H50.7812V333.523H51.834ZM43.1387 335.013V341.576C44.3486 341.562 45.6338 341.48 47.1172 341.179L47.2539 342.136C45.5586 342.437 44.1641 342.533 42.8242 342.533H42.0723V335.013H43.1387ZM60.9906 336.791C60.977 339.005 62.4945 341.248 64.2855 342.054L63.6293 342.902C62.2484 342.225 61.0521 340.796 60.4711 339.06C59.9037 340.899 58.7074 342.43 57.2855 343.148L56.602 342.246C58.4066 341.412 59.9105 339.101 59.9242 336.791V334.576H60.9906V336.791ZM66.6918 333.523V345.705H65.6117V333.523H66.6918ZM78.0719 333.523V337.228H79.9039V338.13H78.0719V342.423H76.9918V333.523H78.0719ZM74.7906 334.466C74.7906 337.597 72.5484 339.921 69.0484 341.015L68.5836 340.154C71.4957 339.245 73.3961 337.508 73.6285 335.369H69.0895V334.466H74.7906ZM78.6324 344.515V345.417H70.4566V341.521H71.523V344.515H78.6324ZM91.5984 343.298V344.187H80.4695V343.298H83.573V340.4H81.4813V339.511H83.3816V335.546H81.4539V334.658H90.532V335.546H88.6043V339.511H90.5047V340.4H88.4129V343.298H91.5984ZM84.448 339.511H87.5516V335.546H84.448V339.511ZM84.6531 343.298H87.3465V340.4H84.6531V343.298Z" fill="#1C1C1C"/>
<path d="M339.035 344.07L343.035 340.07L339.035 336.07" stroke="#9A9893" stroke-width="1.2" stroke-linecap="round" stroke-linejoin="round"/>
<rect x="23" y="367.95" width="344" height="1" fill="#F6F6F6"/>
<path d="M50.959 389.903V392.542H52.791V393.444H50.959V396.096H49.8926V389.903H50.959ZM50.959 396.67V399.637H44.2871V401.032H51.4102V401.893H43.2344V398.817H49.8926V397.532H43.207V396.67H50.959ZM44.8477 390.354C46.6797 390.368 48.0059 391.461 48.0059 393.047C48.0059 394.647 46.6797 395.754 44.8477 395.754C43.0293 395.754 41.6758 394.647 41.6895 393.047C41.6758 391.461 43.0293 390.368 44.8477 390.354ZM44.8477 391.256C43.6309 391.243 42.7285 391.995 42.7422 393.047C42.7285 394.114 43.6309 394.879 44.8477 394.879C46.0645 394.879 46.9531 394.114 46.9531 393.047C46.9531 391.995 46.0645 391.243 44.8477 391.256ZM63.3918 389.917V397.122H62.3254V389.917H63.3918ZM59.5227 390.655V393.95H55.0383V395.631C57.2121 395.645 58.8391 395.577 60.8078 395.249L60.9309 396.151C58.8938 396.465 57.2258 396.534 54.9836 396.534H53.9992V393.102H58.4563V391.516H53.9719V390.655H59.5227ZM63.3918 397.778V401.893H55.4895V397.778H63.3918ZM56.5422 398.653V401.018H62.3391V398.653H56.5422ZM78.0719 389.903V392.842H79.9039V393.745H78.0719V397.012H77.0055V389.903H78.0719ZM70.1422 390.6V392.459H73.6832V390.6H74.7496V396.247H69.0895V390.6H70.1422ZM70.1422 395.385H73.6832V393.321H70.1422V395.385ZM78.1676 397.696V398.557H71.5094V401.018H78.4V401.893H70.443V397.696H78.1676ZM90.5184 389.903V402.057H89.4383V389.903H90.5184ZM86.9227 391.229C86.909 394.729 85.282 397.819 81.2078 399.774L80.6199 398.899C83.908 397.34 85.5828 395.009 85.8289 392.104H81.1805V391.229H86.9227Z" fill="#1C1C1C"/>
<rect x="301.035" y="382.45" width="48" height="28" rx="14" fill="#C61747"/>
<rect x="324.035" y="385.45" width="22" height="22" rx="11" fill="white"/>
<rect x="23" y="423.95" width="344" height="1" fill="#F6F6F6"/>
<path d="M57.4023 454.801V458.273H49.0352V454.801H57.4023ZM50.1016 455.635V457.439H56.3496V455.635H50.1016ZM58.1133 447.309V448.143H48.2559V447.309H52.6855V446.105H53.752V447.309H58.1133ZM53.2188 448.635C55.7344 448.648 57.1562 449.223 57.1562 450.357C57.1562 451.424 55.9326 451.991 53.752 452.066V453.01H58.7559V453.871H47.6816V453.01H52.6855V452.066C50.498 451.991 49.2676 451.424 49.2676 450.357C49.2676 449.223 50.7031 448.648 53.2188 448.635ZM53.2188 449.387C51.4277 449.4 50.4023 449.729 50.416 450.357C50.4023 450.973 51.4277 451.328 53.2188 451.328C54.9961 451.328 56.0215 450.973 56.0215 450.357C56.0215 449.729 54.9961 449.4 53.2188 449.387ZM72.3285 446.283V451.465H74.2699V452.367H72.3285V458.438H71.2484V446.283H72.3285ZM62.7445 455.197C63.7357 455.197 64.891 455.197 66.0941 455.156V453.803C64.6791 453.646 63.7563 452.818 63.7699 451.615C63.7563 450.248 64.9184 449.359 66.641 449.359C68.3363 449.359 69.5121 450.248 69.5258 451.615C69.5121 452.818 68.5756 453.646 67.1742 453.816V455.115C68.309 455.061 69.4506 454.972 70.5102 454.814L70.5785 455.635C67.9262 456.086 65.0551 456.113 62.9223 456.113L62.7445 455.197ZM70.2914 447.773V448.648H62.9633V447.773H66.0941V446.311H67.1742V447.773H70.2914ZM66.641 450.193C65.5199 450.193 64.768 450.768 64.768 451.615C64.768 452.463 65.5199 453.01 66.641 452.996C67.7484 453.01 68.5004 452.463 68.5004 451.615C68.5004 450.768 67.7484 450.193 66.641 450.193ZM80.9469 447.35V448.43H83.7906V446.297H84.8707V455.17H83.7906V451.93H80.9469V453.023H75.3687V447.35H80.9469ZM76.4352 448.238V452.162H79.8941V448.238H76.4352ZM85.1441 457.275V458.178H77.0094V454.377H78.0895V457.275H85.1441ZM80.9469 451.041H83.7906V449.332H80.9469V451.041ZM97.1121 446.283V458.438H96.073V446.283H97.1121ZM94.6648 446.543V457.822H93.6395V451.916H92.0809C91.9646 454.281 90.9598 455.758 89.4559 455.758C87.8699 455.758 86.8445 454.117 86.8445 451.533C86.8445 448.949 87.8699 447.309 89.4559 447.309C90.9324 447.309 91.9305 448.737 92.0672 451.027H93.6395V446.543H94.6648ZM89.4559 448.32C88.4715 448.32 87.8426 449.551 87.8563 451.533C87.8426 453.502 88.4715 454.746 89.4559 454.732C90.4402 454.746 91.0691 453.502 91.0691 451.533C91.0691 449.551 90.4402 448.32 89.4559 448.32ZM112.982 453.639V454.541H107.964V458.465H106.911V454.541H101.907V453.639H112.982ZM107.978 448.689C107.978 450.207 110.097 451.533 112.271 451.834L111.874 452.695C109.994 452.408 108.224 451.465 107.458 450.139C106.679 451.479 104.881 452.408 103.001 452.695L102.605 451.834C104.765 451.533 106.911 450.221 106.911 448.689V448.676H102.987V447.801H106.911V446.283H107.964V447.801H111.915V448.676H107.978V448.689ZM123.213 446.283V451.232H125.182V452.135H123.213V458.438H122.147V446.283H123.213ZM120.069 447.596C120.069 451.041 118.455 454.172 114.491 456.127L113.889 455.279C117.034 453.714 118.743 451.376 118.989 448.498H114.45V447.596H120.069ZM135.113 446.283V451.301H137.15V452.189H135.113V458.438H134.046V446.283H135.113ZM132.871 448.238V449.127H125.638V448.238H128.769V446.434H129.836V448.238H132.871ZM129.316 450.139C131.039 450.139 132.283 451.287 132.296 452.928C132.283 454.568 131.039 455.717 129.316 455.717C127.58 455.717 126.322 454.568 126.336 452.928C126.322 451.287 127.58 450.139 129.316 450.139ZM129.316 451.041C128.181 451.041 127.347 451.834 127.361 452.928C127.347 454.035 128.181 454.814 129.316 454.801C130.437 454.814 131.257 454.035 131.271 452.928C131.257 451.834 130.437 451.041 129.316 451.041ZM147.436 449.975V450.836H139.11V446.734H140.177V449.975H147.436ZM148.721 452.49V453.365H137.593V452.49H148.721ZM147.505 457.248V458.137H139.042V454.609H140.108V457.248H147.505ZM154.501 446.912V448.799H157.892V446.912H158.945V449.277H161.816V446.283H162.896V452.928H161.816V450.18H158.945V452.477H153.435V446.912H154.501ZM154.501 451.602H157.892V449.646H154.501V451.602ZM156.142 453.516V455.006H161.816V453.516H162.882V458.273H155.062V453.516H156.142ZM156.142 457.385H161.816V455.867H156.142V457.385Z" fill="#1C1C1C"/>
<path d="M332.809 456.83L336.809 452.83L332.809 448.83" stroke="#9A9893" stroke-width="1.2" stroke-linecap="round" stroke-linejoin="round"/>
<rect x="23" y="480.71" width="344" height="1" fill="#F6F6F6"/>
<path d="M57.0371 510.016V510.918H51.9648V515.197H50.9121V510.918H45.9082V510.016H57.0371ZM51.4453 503.535C54.002 503.535 55.7246 504.561 55.7246 506.215C55.7246 507.828 54.002 508.854 51.4453 508.854C48.8887 508.854 47.166 507.828 47.166 506.215C47.166 504.561 48.8887 503.535 51.4453 503.535ZM51.4453 504.41C49.5449 504.41 48.2598 505.121 48.2734 506.215C48.2598 507.295 49.5449 507.992 51.4453 507.992C53.332 507.992 54.6309 507.295 54.6309 506.215C54.6309 505.121 53.332 504.41 51.4453 504.41ZM67.8566 503.043V515.225H66.7902V503.043H67.8566ZM64.1652 504.178V508.498H59.6262V511.369C61.6428 511.369 63.4406 511.28 65.6145 510.932L65.7238 511.834C63.4816 512.189 61.6359 512.271 59.5441 512.271H58.5324V507.623H63.0852V505.066H58.5051V504.178H64.1652ZM82.441 503.043V507.992H84.4098V508.895H82.441V515.197H81.3746V503.043H82.441ZM79.2965 504.355C79.2965 507.801 77.6832 510.932 73.7184 512.887L73.1168 512.039C76.2613 510.474 77.9703 508.136 78.2164 505.258H73.6773V504.355H79.2965ZM95.3387 503.043V515.197H94.3133V503.043H95.3387ZM92.782 503.371V514.582H91.7566V508.908H89.1863C88.4412 510.323 87.2723 511.574 85.577 512.572L84.948 511.793C87.5936 510.228 88.9197 508.033 89.118 505.49H85.4676V504.602H90.1844C90.1775 505.798 89.9861 506.953 89.5828 508.033H91.7566V503.371H92.782ZM111.236 508.826V509.729H100.148V508.826H111.236ZM109.937 506.789V507.664H101.556V503.535H109.855V504.438H102.609V506.789H109.937ZM105.685 510.795C108.296 510.795 109.855 511.588 109.868 512.982C109.855 514.391 108.296 515.17 105.685 515.17C103.06 515.17 101.487 514.391 101.487 512.982C101.487 511.588 103.06 510.795 105.685 510.795ZM105.685 511.629C103.73 511.643 102.568 512.135 102.581 512.982C102.568 513.844 103.73 514.322 105.685 514.322C107.612 514.322 108.788 513.844 108.788 512.982C108.788 512.135 107.612 511.643 105.685 511.629ZM123.162 509.742V510.631H112.034V509.742H117.065V508.457H113.483V505.49H120.647V504.232H113.442V503.357H121.727V506.297H114.549V507.596H121.987V508.457H118.118V509.742H123.162ZM121.795 511.561V515.088H120.715V512.436H113.278V511.561H121.795ZM133.353 503.043V508.061H135.39V508.949H133.353V515.197H132.287V503.043H133.353ZM131.111 504.998V505.887H123.879V504.998H127.009V503.193H128.076V504.998H131.111ZM127.556 506.898C129.279 506.898 130.523 508.047 130.537 509.688C130.523 511.328 129.279 512.477 127.556 512.477C125.82 512.477 124.562 511.328 124.576 509.688C124.562 508.047 125.82 506.898 127.556 506.898ZM127.556 507.801C126.421 507.801 125.588 508.594 125.601 509.688C125.588 510.795 126.421 511.574 127.556 511.561C128.677 511.574 129.498 510.795 129.511 509.688C129.498 508.594 128.677 507.801 127.556 507.801ZM145.895 503.043V515.197H144.815V503.043H145.895ZM142.3 504.369C142.286 507.869 140.659 510.959 136.585 512.914L135.997 512.039C139.285 510.48 140.96 508.149 141.206 505.244H136.557V504.369H142.3Z" fill="#1C1C1C"/>
<rect x="153.15" y="501.59" width="44.41" height="16" rx="4" fill="#FDECEF"/>
<path d="M162.738 507.478C162.738 509.164 163.855 510.894 165.209 511.56L164.693 512.236C163.641 511.683 162.76 510.555 162.341 509.229C161.911 510.641 161.009 511.844 159.935 512.419L159.397 511.742C160.794 511.055 161.9 509.218 161.911 507.478V505.737H162.738V507.478ZM166.928 504.91V508.788H168.528V509.519H166.928V514.46H166.09V504.91H166.928ZM172.077 506.726C172.077 507.972 173.012 509.089 174.419 509.551L174.022 510.217C172.921 509.857 172.088 509.094 171.68 508.133C171.266 509.229 170.385 510.083 169.241 510.496L168.812 509.819C170.24 509.336 171.239 508.101 171.25 506.726V506.317H169.07V505.619H174.226V506.317H172.077V506.726ZM176.31 504.91V507.349H177.749V508.058H176.31V510.679H175.472V504.91H176.31ZM173.248 510.937C175.214 510.937 176.396 511.581 176.396 512.677C176.396 513.794 175.214 514.438 173.248 514.438C171.282 514.438 170.079 513.794 170.079 512.677C170.079 511.581 171.282 510.937 173.248 510.937ZM173.248 511.613C171.809 511.613 170.917 512.011 170.928 512.677C170.917 513.364 171.809 513.762 173.248 513.762C174.698 513.762 175.579 513.364 175.579 512.677C175.579 512.011 174.698 511.613 173.248 511.613ZM186.025 504.91V510.335H185.198V504.91H186.025ZM179.601 505.479V508.885C181.18 508.879 182.598 508.772 184.113 508.444L184.242 509.153C182.63 509.476 181.18 509.594 179.526 509.604H178.752V505.479H179.601ZM186.025 510.775V514.331H179.827V510.775H186.025ZM180.654 511.452V513.644H185.198V511.452H180.654Z" fill="#C61747"/>
<path d="M334.57 513.59L338.57 509.59L334.57 505.59" stroke="#9A9893" stroke-width="1.2" stroke-linecap="round" stroke-linejoin="round"/>
<path d="M62.9492 564.613V565.375H58.707V567.508H57.793V565.375H53.4102V564.613H62.9492ZM61.707 559.797V563.418H54.6523V559.797H61.707ZM55.5547 560.523V562.68H60.793V560.523H55.5547ZM61.8828 568.703V569.477H54.6289V566.477H55.5547V568.703H61.8828ZM67.0031 560.043C68.6438 560.043 69.8039 561.039 69.8039 562.492C69.8039 563.945 68.6438 564.941 67.0031 564.941C65.3625 564.941 64.1789 563.945 64.1906 562.492C64.1789 561.039 65.3625 560.043 67.0031 560.043ZM67.0031 560.852C65.8898 560.852 65.0813 561.52 65.093 562.492C65.0813 563.465 65.8898 564.133 67.0031 564.133C68.1047 564.133 68.9016 563.465 68.9016 562.492C68.9016 561.52 68.1047 560.852 67.0031 560.852ZM72.1359 559.281V569.723H71.2219V559.281H72.1359ZM63.6516 566.641C65.5734 566.641 68.2219 566.629 70.5305 566.289L70.6008 566.969C68.2219 567.414 65.6555 567.426 63.7805 567.426L63.6516 566.641ZM81.8266 559.281V563.582H83.5727V564.344H81.8266V569.699H80.9125V559.281H81.8266ZM79.9047 560.957V561.719H73.7055V560.957H76.3891V559.41H77.3031V560.957H79.9047ZM76.8578 562.586C78.3344 562.586 79.4008 563.57 79.4125 564.977C79.4008 566.383 78.3344 567.367 76.8578 567.367C75.3695 567.367 74.2914 566.383 74.3031 564.977C74.2914 563.57 75.3695 562.586 76.8578 562.586ZM76.8578 563.359C75.8852 563.359 75.1703 564.039 75.182 564.977C75.1703 565.926 75.8852 566.594 76.8578 566.582C77.8188 566.594 78.5219 565.926 78.5336 564.977C78.5219 564.039 77.8188 563.359 76.8578 563.359ZM92.5484 559.281V569.699H91.6227V559.281H92.5484ZM89.4664 560.418C89.4547 563.418 88.0602 566.066 84.568 567.742L84.0641 566.992C86.8824 565.656 88.318 563.658 88.5289 561.168H84.5445V560.418H89.4664ZM98.0195 565.797C97.6094 565.797 97.2578 565.457 97.2695 565.035C97.2578 564.625 97.6094 564.285 98.0195 564.285C98.4297 564.285 98.7695 564.625 98.7695 565.035C98.7695 565.457 98.4297 565.797 98.0195 565.797ZM111.166 559.281V569.723H110.241V559.281H111.166ZM105.623 560.09C107.17 560.102 108.284 561.508 108.284 563.723C108.284 565.938 107.17 567.344 105.623 567.344C104.065 567.344 102.963 565.938 102.963 563.723C102.963 561.508 104.065 560.102 105.623 560.09ZM105.623 560.91C104.58 560.922 103.854 562.023 103.854 563.723C103.854 565.422 104.58 566.523 105.623 566.523C106.666 566.523 107.393 565.422 107.393 563.723C107.393 562.023 106.666 560.922 105.623 560.91ZM122.24 564.438V565.199H112.748V564.438H115.103V562.973C114.271 562.65 113.802 562.117 113.802 561.414C113.802 560.184 115.209 559.48 117.494 559.48C119.755 559.48 121.173 560.184 121.173 561.414C121.173 562.111 120.711 562.645 119.884 562.961V564.438H122.24ZM117.494 565.996C119.732 565.996 121.068 566.641 121.08 567.836C121.068 569.02 119.732 569.676 117.494 569.676C115.232 569.676 113.896 569.02 113.896 567.836C113.896 566.641 115.232 565.996 117.494 565.996ZM117.494 566.699C115.818 566.711 114.822 567.121 114.834 567.836C114.822 568.539 115.818 568.961 117.494 568.961C119.146 568.961 120.154 568.539 120.154 567.836C120.154 567.121 119.146 566.711 117.494 566.699ZM117.494 560.207C115.795 560.207 114.74 560.664 114.752 561.414C114.74 562.176 115.795 562.621 117.494 562.621C119.181 562.621 120.236 562.176 120.236 561.414C120.236 560.664 119.181 560.207 117.494 560.207ZM116.017 564.438H118.97V563.219C118.531 563.295 118.039 563.336 117.494 563.336C116.949 563.336 116.457 563.295 116.017 563.219V564.438ZM132.61 560.898V561.648H131.063V563.113H132.61V563.898H131.063V565.48H130.149V559.281H131.063V560.898H132.61ZM131.063 565.961V569.699H130.149V566.723H124.243V565.961H131.063ZM125.848 559.914C127.43 559.902 128.579 560.922 128.591 562.363C128.579 563.828 127.43 564.836 125.848 564.836C124.266 564.836 123.106 563.828 123.118 562.363C123.106 560.922 124.266 559.902 125.848 559.914ZM125.848 560.699C124.794 560.699 124.009 561.379 124.02 562.363C124.009 563.359 124.794 564.051 125.848 564.039C126.915 564.051 127.688 563.359 127.688 562.363C127.688 561.379 126.915 560.699 125.848 560.699ZM138.867 560.09V560.641C138.855 561.32 138.855 562.363 138.598 563.723L137.672 563.652C137.924 562.404 137.947 561.52 137.965 560.863H133.676V560.09H138.867ZM136.184 562.398V564.637C137.338 564.59 138.533 564.508 139.617 564.355L139.676 565.035C137.496 565.41 134.977 565.457 133.125 565.457L133.031 564.695C133.705 564.689 134.467 564.684 135.27 564.66V562.398H136.184ZM141.258 559.281V562.68H142.781V563.465H141.258V567.121H140.32V559.281H141.258ZM141.598 568.703V569.477H134.637V566.418H135.562V568.703H141.598ZM147.174 565.797C146.764 565.797 146.412 565.457 146.424 565.035C146.412 564.625 146.764 564.285 147.174 564.285C147.584 564.285 147.924 564.625 147.924 565.035C147.924 565.457 147.584 565.797 147.174 565.797ZM160.626 559.281V569.699H159.723V564.25H158.282V569.184H157.403V559.562H158.282V563.488H159.723V559.281H160.626ZM156.22 560.641C156.208 563.289 155.282 565.797 152.282 567.461L151.743 566.816C154.163 565.469 155.165 563.559 155.317 561.402H152.141V560.641H156.22ZM170.504 559.293V566.91H169.59V559.293H170.504ZM170.832 568.703V569.477H163.777V566.137H164.691V568.703H170.832ZM164.879 560.02C166.438 560.02 167.609 561.074 167.609 562.574C167.609 564.098 166.438 565.141 164.879 565.141C163.32 565.141 162.148 564.098 162.148 562.574C162.148 561.074 163.32 560.02 164.879 560.02ZM164.879 560.828C163.824 560.828 163.039 561.555 163.051 562.574C163.039 563.617 163.824 564.332 164.879 564.332C165.91 564.332 166.707 563.617 166.707 562.574C166.707 561.555 165.91 560.828 164.879 560.828ZM180.71 559.281V565.492H179.784V562.762H177.687V562H179.784V559.281H180.71ZM177.253 565.82C179.421 565.82 180.745 566.523 180.745 567.754C180.745 568.984 179.421 569.688 177.253 569.699C175.085 569.688 173.761 568.984 173.761 567.754C173.761 566.523 175.085 565.82 177.253 565.82ZM177.253 566.535C175.659 566.535 174.663 566.992 174.675 567.754C174.663 568.504 175.659 568.961 177.253 568.961C178.847 568.961 179.831 568.504 179.831 567.754C179.831 566.992 178.847 566.535 177.253 566.535ZM175.695 561.191C175.695 562.551 176.738 563.84 178.261 564.367L177.78 565.105C176.609 564.684 175.7 563.811 175.261 562.727C174.804 563.951 173.837 564.93 172.601 565.398L172.12 564.66C173.667 564.098 174.769 562.691 174.769 561.203V560.816H172.413V560.043H178.027V560.816H175.695V561.191ZM191.784 567.602V568.363H182.245V567.602H186.534V565.352H183.37V560.02H184.295V561.906H189.709V560.02H190.612V565.352H187.436V567.602H191.784ZM184.295 564.602H189.709V562.656H184.295V564.602ZM203.864 559.281V569.723H202.938V564.238H200.653V563.477H202.938V559.281H203.864ZM198.825 562.68C198.825 564.402 199.997 566.09 201.544 566.781L201.016 567.496C199.833 566.951 198.848 565.814 198.391 564.438C197.934 565.891 196.962 567.109 195.778 567.684L195.251 566.969C196.774 566.254 197.923 564.473 197.923 562.68V561.848H195.532V561.098H197.923V559.48H198.837V561.098H201.192V561.848H198.825V562.68ZM214 559.281V569.723H213.086V559.281H214ZM210.836 560.254V563.957H206.945V566.418C208.674 566.418 210.215 566.342 212.078 566.043L212.172 566.816C210.25 567.121 208.668 567.191 206.875 567.191H206.008V563.207H209.91V561.016H205.984V560.254H210.836ZM220.374 565.832C222.519 565.832 223.808 566.535 223.808 567.754C223.808 568.984 222.519 569.688 220.374 569.699C218.23 569.688 216.917 568.984 216.917 567.754C216.917 566.535 218.23 565.832 220.374 565.832ZM220.374 566.559C218.804 566.57 217.831 567.004 217.843 567.754C217.831 568.504 218.804 568.949 220.374 568.949C221.956 568.949 222.917 568.504 222.917 567.754C222.917 567.004 221.956 566.57 220.374 566.559ZM223.714 559.281V561.906H225.284V562.691H223.714V565.551H222.8V559.281H223.714ZM216.917 559.938V561.531H219.952V559.938H220.866V564.742H216.015V559.938H216.917ZM216.917 563.992H219.952V562.258H216.917V563.992ZM229.526 561.402C229.526 562.727 230.663 563.898 232.221 564.344L231.788 565.07C230.557 564.701 229.567 563.898 229.092 562.855C228.623 563.998 227.639 564.883 226.397 565.293L225.952 564.578C227.498 564.074 228.612 562.82 228.612 561.402V561.262H226.209V560.523H228.612V559.234H229.538V560.523H231.916V561.262H229.526V561.402ZM234.342 559.293V565.469H233.428V559.293H234.342ZM234.342 565.996V569.559H227.569V565.996H234.342ZM228.471 566.746V568.809H233.44V566.746H228.471ZM239.825 565.797C239.415 565.797 239.063 565.457 239.075 565.035C239.063 564.625 239.415 564.285 239.825 564.285C240.235 564.285 240.575 564.625 240.575 565.035C240.575 565.457 240.235 565.797 239.825 565.797ZM253.921 567.637V568.41H244.382V567.637H248.671V565.668H245.577V562.457H251.812V560.816H245.554V560.055H252.714V563.207H246.491V564.906H252.96V565.668H249.573V567.637H253.921ZM262.768 560.395V561.438C262.768 562.75 262.768 564.238 262.381 566.5L261.444 566.406C261.866 564.273 261.866 562.715 261.866 561.438V561.156H255.584V560.395H262.768ZM264.045 567.402V568.164H254.553V567.402H264.045ZM267.513 560.09C269.048 560.102 270.138 561.508 270.15 563.723C270.138 565.938 269.048 567.344 267.513 567.344C265.966 567.344 264.888 565.938 264.888 563.723C264.888 561.508 265.966 560.102 267.513 560.09ZM267.513 560.91C266.482 560.922 265.755 562.023 265.755 563.723C265.755 565.422 266.482 566.523 267.513 566.523C268.556 566.523 269.259 565.422 269.259 563.723C269.259 562.023 268.556 560.922 267.513 560.91ZM272.787 559.281V563.441H274.533V564.238H272.787V569.699H271.873V559.281H272.787ZM284.423 564.039V564.836H280.075V565.973H279.173V564.836H274.895V564.039H284.423ZM280.087 566.781C280.087 567.93 281.774 568.762 283.661 568.949L283.368 569.652C281.721 569.477 280.239 568.844 279.618 567.836C278.997 568.832 277.526 569.477 275.891 569.652L275.587 568.949C277.45 568.762 279.149 567.918 279.149 566.781V566.441H280.087V566.781ZM279.641 559.457C281.927 559.457 283.321 560.137 283.321 561.355C283.321 562.562 281.927 563.266 279.641 563.254C277.356 563.266 275.95 562.562 275.95 561.355C275.95 560.137 277.356 559.457 279.641 559.457ZM279.641 560.16C277.942 560.148 276.887 560.605 276.899 561.355C276.887 562.094 277.942 562.539 279.641 562.539C281.329 562.539 282.384 562.094 282.384 561.355C282.384 560.605 281.329 560.148 279.641 560.16ZM288.98 565.797C288.57 565.797 288.218 565.457 288.23 565.035C288.218 564.625 288.57 564.285 288.98 564.285C289.39 564.285 289.73 564.625 289.73 565.035C289.73 565.457 289.39 565.797 288.98 565.797ZM302.08 559.281V569.699H301.166V559.281H302.08ZM293.595 566.922C294.486 566.916 295.505 566.91 296.56 566.875V565.738C295.312 565.604 294.498 564.895 294.509 563.852C294.498 562.68 295.505 561.918 297.005 561.918C298.505 561.918 299.525 562.68 299.525 563.852C299.525 564.883 298.716 565.592 297.486 565.727V566.84C298.494 566.799 299.513 566.723 300.474 566.594L300.545 567.297C298.224 567.672 295.67 567.707 293.736 567.707L293.595 566.922ZM300.205 560.57V561.32H293.818V560.57H296.56V559.293H297.486V560.57H300.205ZM297.005 562.633C296.045 562.633 295.365 563.125 295.365 563.852C295.365 564.578 296.045 565.047 297.005 565.035C297.978 565.047 298.646 564.578 298.646 563.852C298.646 563.125 297.978 562.633 297.005 562.633ZM312.298 559.293V567.203H311.372V566.125H309.216V565.457H311.372V559.293H312.298ZM312.555 568.703V569.477H305.149V566.43H306.075V568.703H312.555ZM303.649 564.121C305.595 564.109 308.196 564.098 310.434 563.816L310.493 564.484C309.561 564.631 308.589 564.725 307.634 564.777V566.84H306.708V564.824C305.653 564.871 304.651 564.877 303.778 564.871L303.649 564.121ZM307.071 559.715C308.595 559.715 309.637 560.441 309.649 561.531C309.637 562.645 308.595 563.336 307.071 563.336C305.536 563.336 304.493 562.645 304.493 561.531C304.493 560.441 305.536 559.715 307.071 559.715ZM307.071 560.418C306.052 560.406 305.36 560.863 305.372 561.531C305.36 562.211 306.052 562.656 307.071 562.656C308.055 562.656 308.759 562.211 308.77 561.531C308.759 560.863 308.055 560.406 307.071 560.418ZM321.976 559.809V560.559H318.097V561.684H321.777V562.398H318.097V563.605C320.171 563.605 321.302 563.564 322.691 563.336L322.784 564.074C321.331 564.32 320.148 564.355 317.968 564.355H317.183V559.809H321.976ZM324.835 559.281V561.566H326.405V562.328H324.835V564.73H323.921V559.281H324.835ZM324.835 565.234V567.684H319.116V568.844H325.222V569.582H318.214V566.98H323.921V565.973H318.191V565.234H324.835ZM333.178 564.309V565.059H330.823V566.746C331.825 566.699 332.844 566.617 333.799 566.477L333.87 567.156C331.491 567.59 328.924 567.59 327.049 567.602L326.92 566.828C327.793 566.822 328.825 566.822 329.909 566.781V565.059H327.717V560.23H333.131V560.98H328.643V562.258H332.909V562.984H328.643V564.309H333.178ZM335.405 559.281V569.723H334.491V559.281H335.405Z" fill="#9A9893"/>
</g>
<rect x="1.5" y="797.21" width="387" height="63.71" fill="white"/>
<rect x="1.5" y="797.21" width="387" height="63.71" stroke="#F6F6F6"/>
<rect x="20.5" y="708.5" width="346" height="51" rx="25.5" fill="white"/>
<rect x="20.5" y="708.5" width="346" height="51" rx="25.5" stroke="#F6F6F6"/>
<path d="M47.9993 743.333C52.6017 743.333 56.3327 739.602 56.3327 735C56.3327 730.397 52.6017 726.667 47.9993 726.667C43.397 726.667 39.666 730.397 39.666 735C39.666 739.602 43.397 743.333 47.9993 743.333Z" stroke="#1F9D55" stroke-width="1.66667" stroke-linecap="round" stroke-linejoin="round"/>
<path d="M45.5 735L47.1667 736.667L50.5 733.333" stroke="#1F9D55" stroke-width="1.66667" stroke-linecap="round" stroke-linejoin="round"/>
<path d="M77.8135 728.742V740.054H76.8105V733.681H74.335V732.855H76.8105V728.742H77.8135ZM72.3672 732.094C72.3672 733.973 73.7129 736.017 75.3633 736.766L74.7666 737.565C73.478 736.937 72.3926 735.572 71.8848 733.998C71.3643 735.667 70.2534 737.115 68.9648 737.794L68.3555 737.02C69.9932 736.22 71.3516 734.1 71.3643 732.094V730.735H68.7871V729.91H74.957V730.735H72.3672V732.094ZM83.3137 730.888C83.3137 732.36 84.4182 733.681 86.0813 734.227L85.6115 735.014C84.3103 734.588 83.3264 733.687 82.8439 732.551C82.3552 733.846 81.3142 734.855 79.9621 735.344L79.4543 734.544C81.1428 733.973 82.3234 732.513 82.3361 730.888V730.405H79.759V729.58H85.8527V730.405H83.3137V730.888ZM88.3156 728.742V731.624H90.0168V732.462H88.3156V735.56H87.3254V728.742H88.3156ZM84.6975 735.864C87.0207 735.864 88.4172 736.626 88.4172 737.921C88.4172 739.241 87.0207 740.003 84.6975 740.003C82.3742 740.003 80.9523 739.241 80.9523 737.921C80.9523 736.626 82.3742 735.864 84.6975 735.864ZM84.6975 736.664C82.9963 736.664 81.9426 737.134 81.9553 737.921C81.9426 738.733 82.9963 739.203 84.6975 739.203C86.4113 739.203 87.4523 738.733 87.4523 737.921C87.4523 737.134 86.4113 736.664 84.6975 736.664ZM100.113 728.755V735.75H99.1605V732.69H97.6879V735.572H96.7357V728.933H97.6879V731.865H99.1605V728.755H100.113ZM96.2533 730.037V730.862H90.4643V730.037H92.8764V728.793H93.8666V730.037H96.2533ZM93.3715 731.434C94.8061 731.434 95.7836 732.183 95.7963 733.363C95.7836 734.519 94.8061 735.293 93.3715 735.293C91.9496 735.293 90.9467 734.519 90.9594 733.363C90.9467 732.183 91.9496 731.434 93.3715 731.434ZM93.3715 732.183C92.4701 732.183 91.848 732.64 91.848 733.363C91.848 734.074 92.4701 734.544 93.3715 734.544C94.2729 734.544 94.8949 734.074 94.8949 733.363C94.8949 732.64 94.2729 732.183 93.3715 732.183ZM94.5268 736.474C94.5141 737.438 95.0409 738.441 96.1137 739.013C97.1801 738.391 97.726 737.299 97.7387 736.474V736.067H98.7162V736.474C98.7035 737.578 99.5668 738.695 101.014 739.14L100.544 739.901C99.4081 739.508 98.6083 738.74 98.2211 737.819C97.872 738.714 97.1864 739.571 96.1264 739.99C95.0346 739.584 94.349 738.784 94.0189 737.87C93.6 738.746 92.8129 739.508 91.7338 739.901L91.2514 739.14C92.6605 738.657 93.5492 737.502 93.5492 736.474V736.067H94.5268V736.474ZM104.597 729.618C106.133 729.631 107.238 730.945 107.403 733.059H109.929V728.742H110.92V740.054H109.929V733.884H107.416C107.295 736.093 106.171 737.477 104.597 737.477C102.934 737.477 101.766 735.953 101.766 733.554C101.766 731.154 102.934 729.631 104.597 729.618ZM104.597 730.507C103.48 730.52 102.718 731.713 102.718 733.554C102.718 735.395 103.48 736.588 104.597 736.588C105.702 736.588 106.476 735.395 106.476 733.554C106.476 731.713 105.702 730.52 104.597 730.507ZM122.932 737.743V738.581H112.598V737.743H115.163V734.696C114.198 734.195 113.614 733.382 113.614 732.36C113.614 730.608 115.328 729.466 117.74 729.453C120.152 729.466 121.866 730.608 121.866 732.36C121.866 733.363 121.301 734.169 120.368 734.671V737.743H122.932ZM117.74 730.278C115.887 730.266 114.579 731.104 114.579 732.36C114.579 733.617 115.887 734.468 117.74 734.468C119.581 734.468 120.901 733.617 120.901 732.36C120.901 731.104 119.581 730.266 117.74 730.278ZM116.14 737.743H119.365V735.052C118.876 735.185 118.33 735.255 117.74 735.255C117.162 735.255 116.623 735.191 116.14 735.064V737.743Z" fill="#1C1C1C"/>
<g filter="url(#filter0_d_236_5167)">
<mask id="path-42-inside-1_236_5167" fill="white">
<path d="M0 780.82H390V852.82H0V780.82Z"/>
</mask>
<path d="M0 780.82H390V852.82H0V780.82Z" fill="white"/>
<path d="M0 780.82V781.82H390V780.82V779.82H0V780.82Z" fill="#ECE6DF" mask="url(#path-42-inside-1_236_5167)"/>
<path d="M58.75 815.32V807.32C58.75 807.055 58.6446 806.801 58.4571 806.613C58.2696 806.426 58.0152 806.32 57.75 806.32H53.75C53.4848 806.32 53.2304 806.426 53.0429 806.613C52.8554 806.801 52.75 807.055 52.75 807.32V815.32" stroke="#5F5F5D" stroke-width="1.46667" stroke-linecap="round" stroke-linejoin="round"/>
<path d="M46.75 804.32C46.7499 804.029 46.8133 803.742 46.9358 803.478C47.0582 803.214 47.2368 802.98 47.459 802.792L54.459 796.793C54.82 796.488 55.2774 796.321 55.75 796.321C56.2226 796.321 56.68 796.488 57.041 796.793L64.041 802.792C64.2632 802.98 64.4418 803.214 64.5642 803.478C64.6867 803.742 64.7501 804.029 64.75 804.32V813.32C64.75 813.851 64.5393 814.359 64.1642 814.734C63.7891 815.11 63.2804 815.32 62.75 815.32H48.75C48.2196 815.32 47.7109 815.11 47.3358 814.734C46.9607 814.359 46.75 813.851 46.75 813.32V804.32Z" stroke="#5F5F5D" stroke-width="1.46667" stroke-linecap="round" stroke-linejoin="round"/>
<path d="M57.7744 831.333V834.062H51.2002V831.333H57.7744ZM52.0381 831.988V833.406H56.9473V831.988H52.0381ZM58.333 825.446V826.102H50.5879V825.446H54.0684V824.501H54.9062V825.446H58.333ZM54.4873 826.488C56.4639 826.499 57.5811 826.95 57.5811 827.842C57.5811 828.68 56.6196 829.125 54.9062 829.185V829.926H58.8379V830.603H50.1367V829.926H54.0684V829.185C52.3496 829.125 51.3828 828.68 51.3828 827.842C51.3828 826.95 52.5107 826.499 54.4873 826.488ZM54.4873 827.079C53.0801 827.09 52.2744 827.348 52.2852 827.842C52.2744 828.325 53.0801 828.604 54.4873 828.604C55.8838 828.604 56.6895 828.325 56.6895 827.842C56.6895 827.348 55.8838 827.09 54.4873 827.079Z" fill="#5F5F5D"/>
<path d="M143.25 802.32C143.25 800.729 143.882 799.203 145.007 798.078C146.133 796.952 147.659 796.32 149.25 796.32C150.841 796.32 152.367 796.952 153.493 798.078C154.618 799.203 155.25 800.729 155.25 802.32C155.25 809.32 158.25 811.32 158.25 811.32H140.25C140.25 811.32 143.25 809.32 143.25 802.32Z" stroke="#5F5F5D" stroke-width="1.46667" stroke-linecap="round" stroke-linejoin="round"/>
<path d="M147.551 815.32C147.718 815.625 147.964 815.879 148.263 816.056C148.562 816.232 148.903 816.326 149.251 816.326C149.598 816.326 149.939 816.232 150.238 816.056C150.537 815.879 150.783 815.625 150.951 815.32" stroke="#5F5F5D" stroke-width="1.46667" stroke-linecap="round" stroke-linejoin="round"/>
<path d="M141.603 824.641V826.714H143.042V827.423H141.603V829.507H140.765V824.641H141.603ZM141.603 829.958V832.289H136.36V833.385H141.957V834.062H135.533V831.645H140.765V830.635H135.512V829.958H141.603ZM136.801 824.995C138.24 825.006 139.282 825.865 139.282 827.111C139.282 828.368 138.24 829.238 136.801 829.238C135.372 829.238 134.309 828.368 134.319 827.111C134.309 825.865 135.372 825.006 136.801 824.995ZM136.801 825.704C135.845 825.693 135.136 826.284 135.146 827.111C135.136 827.949 135.845 828.551 136.801 828.551C137.757 828.551 138.455 827.949 138.455 827.111C138.455 826.284 137.757 825.693 136.801 825.704ZM151.328 824.651V830.312H150.49V824.651H151.328ZM148.288 825.231V827.82H144.765V829.142C146.473 829.152 147.751 829.099 149.298 828.841L149.395 829.55C147.794 829.797 146.484 829.851 144.722 829.851H143.948V827.154H147.45V825.908H143.927V825.231H148.288ZM151.328 830.828V834.062H145.119V830.828H151.328ZM145.946 831.516V833.374H150.501V831.516H145.946ZM160.216 824.641V827.187H161.656V827.906H160.216V830.398H159.378V824.641H160.216ZM160.216 830.946V834.062H154.19V830.946H160.216ZM155.017 831.623V833.374H159.378V831.623H155.017ZM158.465 825.661V826.359H152.772V825.661H155.2V824.565H156.038V825.661H158.465ZM155.619 826.832C156.994 826.832 157.907 827.509 157.917 828.529C157.907 829.571 156.994 830.237 155.619 830.237C154.233 830.237 153.309 829.571 153.32 828.529C153.309 827.509 154.233 826.832 155.619 826.832ZM155.619 827.487C154.716 827.487 154.115 827.906 154.125 828.529C154.115 829.185 154.716 829.582 155.619 829.593C156.51 829.582 157.112 829.185 157.122 828.529C157.112 827.906 156.51 827.487 155.619 827.487Z" fill="#5F5F5D"/>
<path d="M232.75 803.32C233.546 803.32 234.309 803.636 234.871 804.199C235.434 804.762 235.75 805.525 235.75 806.32C235.75 807.116 235.434 807.879 234.871 808.442C234.309 809.004 233.546 809.32 232.75 809.32V811.32C232.75 811.851 232.961 812.359 233.336 812.735C233.711 813.11 234.22 813.32 234.75 813.32H250.75C251.28 813.32 251.789 813.11 252.164 812.735C252.539 812.359 252.75 811.851 252.75 811.32V809.32C251.954 809.32 251.191 809.004 250.629 808.442C250.066 807.879 249.75 807.116 249.75 806.32C249.75 805.525 250.066 804.762 250.629 804.199C251.191 803.636 251.954 803.32 252.75 803.32V801.32C252.75 800.79 252.539 800.281 252.164 799.906C251.789 799.531 251.28 799.32 250.75 799.32H234.75C234.22 799.32 233.711 799.531 233.336 799.906C232.961 800.281 232.75 800.79 232.75 801.32V803.32Z" stroke="#5F5F5D" stroke-width="1.46667" stroke-linecap="round" stroke-linejoin="round"/>
<path d="M243.75 799.32V801.32" stroke="#5F5F5D" stroke-width="1.46667" stroke-linecap="round" stroke-linejoin="round"/>
<path d="M243.75 811.32V813.32" stroke="#5F5F5D" stroke-width="1.46667" stroke-linecap="round" stroke-linejoin="round"/>
<path d="M243.75 805.32V807.32" stroke="#5F5F5D" stroke-width="1.46667" stroke-linecap="round" stroke-linejoin="round"/>
<path d="M234.79 824.641V834.19H233.963V829.249H232.588V833.696H231.793V824.855H232.588V828.529H233.963V824.641H234.79ZM227.958 825.812V830.968C228.909 830.957 229.918 830.893 231.084 830.656L231.191 831.408C229.859 831.645 228.764 831.72 227.711 831.72H227.12V825.812H227.958ZM246.088 825.242V826.123C246.088 827.106 246.088 828.218 245.755 829.775H247.205V830.484H243.295V834.19H242.447V830.484H238.504V829.775H244.907C245.073 829.093 245.164 828.497 245.218 827.949L239.45 828.25L239.342 827.509L245.272 827.305C245.288 826.886 245.288 826.494 245.293 826.123V825.94H239.611V825.242H246.088ZM255.685 825.081V825.779H254.213V827.971H255.653V828.647H252.581V829.818H256.512V830.506H247.811V829.818H251.743V828.647H248.66V827.971H250.099V825.779H248.628V825.081H255.685ZM255.546 833.277V833.986H248.939V831.344H249.788V833.277H255.546ZM250.937 827.971H253.376V825.779H250.937V827.971Z" fill="#5F5F5D"/>
<path d="M343.25 815.32V813.32C343.25 812.259 342.829 811.242 342.078 810.492C341.328 809.742 340.311 809.32 339.25 809.32H333.25C332.189 809.32 331.172 809.742 330.422 810.492C329.671 811.242 329.25 812.259 329.25 813.32V815.32" stroke="#C61747" stroke-width="1.46667" stroke-linecap="round" stroke-linejoin="round"/>
<path d="M336.25 805.32C338.459 805.32 340.25 803.529 340.25 801.32C340.25 799.111 338.459 797.32 336.25 797.32C334.041 797.32 332.25 799.111 332.25 801.32C332.25 803.529 334.041 805.32 336.25 805.32Z" stroke="#C61747" stroke-width="1.46667" stroke-linecap="round" stroke-linejoin="round"/>
<path d="M328.29 824.641V834.19H327.463V829.249H326.088V833.696H325.293V824.855H326.088V828.529H327.463V824.641H328.29ZM321.458 825.812V830.968C322.409 830.957 323.418 830.893 324.584 830.656L324.691 831.408C323.359 831.645 322.264 831.72 321.211 831.72H320.62V825.812H321.458ZM339.921 824.641V830.334H339.073V827.831H337.15V827.133H339.073V824.641H339.921ZM336.752 830.635C338.74 830.635 339.954 831.279 339.954 832.407C339.954 833.535 338.74 834.18 336.752 834.19C334.765 834.18 333.551 833.535 333.551 832.407C333.551 831.279 334.765 830.635 336.752 830.635ZM336.752 831.29C335.291 831.29 334.378 831.709 334.389 832.407C334.378 833.095 335.291 833.514 336.752 833.514C338.213 833.514 339.116 833.095 339.116 832.407C339.116 831.709 338.213 831.29 336.752 831.29ZM335.324 826.392C335.324 827.638 336.28 828.819 337.676 829.303L337.236 829.979C336.162 829.593 335.329 828.792 334.926 827.799C334.507 828.921 333.621 829.818 332.488 830.248L332.047 829.571C333.465 829.056 334.475 827.767 334.475 826.402V826.048H332.316V825.339H337.461V826.048H335.324V826.392ZM350.055 832.268V832.966H341.311V832.268H345.243V830.205H342.342V825.317H343.191V827.047H348.154V825.317H348.981V830.205H346.07V832.268H350.055ZM343.191 829.518H348.154V827.734H343.191V829.518Z" fill="#C61747"/>
<rect x="321.25" y="781.82" width="28" height="3" rx="1.5" fill="#C61747"/>
</g>
</g>
<rect x="0.5" y="0.5" width="389" height="851.82" stroke="#F6F6F6"/>
<defs>
<filter id="filter0_d_236_5167" x="-12" y="766.82" width="414" height="96" filterUnits="userSpaceOnUse" color-interpolation-filters="sRGB">
<feFlood flood-opacity="0" result="BackgroundImageFix"/>
<feColorMatrix in="SourceAlpha" type="matrix" values="0 0 0 0 0 0 0 0 0 0 0 0 0 0 0 0 0 0 127 0" result="hardAlpha"/>
<feOffset dy="-2"/>
<feGaussianBlur stdDeviation="6"/>
<feColorMatrix type="matrix" values="0 0 0 0 0.11 0 0 0 0 0.11 0 0 0 0 0.11 0 0 0 0.05 0"/>
<feBlend mode="normal" in2="BackgroundImageFix" result="effect1_dropShadow_236_5167"/>
<feBlend mode="normal" in="SourceGraphic" in2="effect1_dropShadow_236_5167" result="shape"/>
</filter>
<clipPath id="clip0_236_5167">
<rect width="390" height="852.82" fill="white"/>
</clipPath>
<clipPath id="clip1_236_5167">
<rect width="388" height="722.11" fill="white" transform="translate(1 74.6001)"/>
</clipPath>
</defs>
</svg>
